<?xml version='1.0' encoding='UTF-8' standalone='no'?>
<svg height="432pt" xmlns:xlink="http://www.w3.org/1999/xlink" xmlns="http://www.w3.org/2000/svg" viewBox="0 0 576 432" width="576pt">
 <title>gl2ps_renderer figure</title>
 <desc>
Creator: GL2PS 1.4.2, (C) 1999-2020 C. Geuzaine
For: Octave
CreationDate: Mon Dec 14 22:24:35 2020
</desc>
 <defs/>
 <polygon fill="#ffffff" points="0,0 576,0 576,432 0,432"/>
 <g>
  <polygon shape-rendering="crispEdges" fill="#ffffff" points="0,432 576,432 576,0 0,0"/>
  <clipPath id="cp00576432">
   <polygon points="0,432 576,432 576,0 0,0"/>
  </clipPath>
  <g clip-path="url(#cp00576432)">
   <polygon shape-rendering="crispEdges" fill="#ffffff" points="74.8799,384.48 521.28,384.48 521.28,32.3999 74.8799,32.3999"/>
   <polyline stroke-linejoin="miter" stroke-dasharray="16,0" fill="none" stroke-opacity="0.15" stroke="#262626" stroke-linecap="butt" stroke-width="0.5" points="74.8799,384.48 74.8799,32.3999"/>
   <polyline stroke-linejoin="miter" stroke-dasharray="16,0" fill="none" stroke-opacity="0.15" stroke="#262626" stroke-linecap="butt" stroke-width="0.5" points="149.28,384.48 149.28,32.3999"/>
   <polyline stroke-linejoin="miter" stroke-dasharray="16,0" fill="none" stroke-opacity="0.15" stroke="#262626" stroke-linecap="butt" stroke-width="0.5" points="223.68,384.48 223.68,32.3999"/>
   <polyline stroke-linejoin="miter" stroke-dasharray="16,0" fill="none" stroke-opacity="0.15" stroke="#262626" stroke-linecap="butt" stroke-width="0.5" points="298.08,384.48 298.08,32.3999"/>
   <polyline stroke-linejoin="miter" stroke-dasharray="16,0" fill="none" stroke-opacity="0.15" stroke="#262626" stroke-linecap="butt" stroke-width="0.5" points="372.48,384.48 372.48,32.3999"/>
   <polyline stroke-linejoin="miter" stroke-dasharray="16,0" fill="none" stroke-opacity="0.15" stroke="#262626" stroke-linecap="butt" stroke-width="0.5" points="446.88,384.48 446.88,32.3999"/>
   <polyline stroke-linejoin="miter" stroke-dasharray="16,0" fill="none" stroke-opacity="0.15" stroke="#262626" stroke-linecap="butt" stroke-width="0.5" points="521.28,384.48 521.28,32.3999"/>
   <polyline stroke-linejoin="miter" fill="none" stroke="#262626" stroke-linecap="butt" stroke-width="0.5" points="74.8799,384.48 74.8799,380.015"/>
   <polyline stroke-linejoin="miter" fill="none" stroke="#262626" stroke-linecap="butt" stroke-width="0.5" points="149.28,384.48 149.28,380.015"/>
   <polyline stroke-linejoin="miter" fill="none" stroke="#262626" stroke-linecap="butt" stroke-width="0.5" points="223.68,384.48 223.68,380.015"/>
   <polyline stroke-linejoin="miter" fill="none" stroke="#262626" stroke-linecap="butt" stroke-width="0.5" points="298.08,384.48 298.08,380.015"/>
   <polyline stroke-linejoin="miter" fill="none" stroke="#262626" stroke-linecap="butt" stroke-width="0.5" points="372.48,384.48 372.48,380.015"/>
   <polyline stroke-linejoin="miter" fill="none" stroke="#262626" stroke-linecap="butt" stroke-width="0.5" points="446.88,384.48 446.88,380.015"/>
   <polyline stroke-linejoin="miter" fill="none" stroke="#262626" stroke-linecap="butt" stroke-width="0.5" points="521.28,384.48 521.28,380.015"/>
   <text font-weight="normal" xml:space="preserve" font-family="FreeSans" font-style="normal" font-size="10" transform="translate(71.88,399.982) rotate(-0,3,-8)">
    <tspan fill="rgb(38,38,38)" y="-0" x="0 ">0</tspan>
   </text>
   <text font-weight="normal" xml:space="preserve" font-family="FreeSans" font-style="normal" font-size="10" transform="translate(140.28,399.982) rotate(-0,9,-8)">
    <tspan fill="rgb(38,38,38)" y="-0" x="0 6 12 ">100</tspan>
   </text>
   <text font-weight="normal" xml:space="preserve" font-family="FreeSans" font-style="normal" font-size="10" transform="translate(214.68,399.982) rotate(-0,9,-8)">
    <tspan fill="rgb(38,38,38)" y="-0" x="0 6 12 ">200</tspan>
   </text>
   <text font-weight="normal" xml:space="preserve" font-family="FreeSans" font-style="normal" font-size="10" transform="translate(289.08,399.982) rotate(-0,9,-8)">
    <tspan fill="rgb(38,38,38)" y="-0" x="0 6 12 ">300</tspan>
   </text>
   <text font-weight="normal" xml:space="preserve" font-family="FreeSans" font-style="normal" font-size="10" transform="translate(363.48,399.982) rotate(-0,9,-8)">
    <tspan fill="rgb(38,38,38)" y="-0" x="0 6 12 ">400</tspan>
   </text>
   <text font-weight="normal" xml:space="preserve" font-family="FreeSans" font-style="normal" font-size="10" transform="translate(437.88,399.982) rotate(-0,9,-8)">
    <tspan fill="rgb(38,38,38)" y="-0" x="0 6 12 ">500</tspan>
   </text>
   <text font-weight="normal" xml:space="preserve" font-family="FreeSans" font-style="normal" font-size="10" transform="translate(512.28,399.982) rotate(-0,9,-8)">
    <tspan fill="rgb(38,38,38)" y="-0" x="0 6 12 ">600</tspan>
   </text>
   <polyline stroke-linejoin="miter" stroke-dasharray="16,0" fill="none" stroke-opacity="0.15" stroke="#262626" stroke-linecap="butt" stroke-width="0.5" points="74.8799,384.48 521.28,384.48"/>
   <polyline stroke-linejoin="miter" stroke-dasharray="16,0" fill="none" stroke-opacity="0.15" stroke="#262626" stroke-linecap="butt" stroke-width="0.5" points="74.8799,325.8 521.28,325.8"/>
   <polyline stroke-linejoin="miter" stroke-dasharray="16,0" fill="none" stroke-opacity="0.15" stroke="#262626" stroke-linecap="butt" stroke-width="0.5" points="74.8799,267.12 521.28,267.12"/>
   <polyline stroke-linejoin="miter" stroke-dasharray="16,0" fill="none" stroke-opacity="0.15" stroke="#262626" stroke-linecap="butt" stroke-width="0.5" points="74.8799,208.44 521.28,208.44"/>
   <polyline stroke-linejoin="miter" stroke-dasharray="16,0" fill="none" stroke-opacity="0.15" stroke="#262626" stroke-linecap="butt" stroke-width="0.5" points="74.8799,149.76 521.28,149.76"/>
   <polyline stroke-linejoin="miter" stroke-dasharray="16,0" fill="none" stroke-opacity="0.15" stroke="#262626" stroke-linecap="butt" stroke-width="0.5" points="74.8799,91.0801 521.28,91.0801"/>
   <polyline stroke-linejoin="miter" stroke-dasharray="16,0" fill="none" stroke-opacity="0.15" stroke="#262626" stroke-linecap="butt" stroke-width="0.5" points="74.8799,32.3999 521.28,32.3999"/>
   <polyline stroke-linejoin="miter" fill="none" stroke="#262626" stroke-linecap="butt" stroke-width="0.5" points="74.8799,384.48 79.3481,384.48"/>
   <polyline stroke-linejoin="miter" fill="none" stroke="#262626" stroke-linecap="butt" stroke-width="0.5" points="74.8799,325.8 79.3481,325.8"/>
   <polyline stroke-linejoin="miter" fill="none" stroke="#262626" stroke-linecap="butt" stroke-width="0.5" points="74.8799,267.12 79.3481,267.12"/>
   <polyline stroke-linejoin="miter" fill="none" stroke="#262626" stroke-linecap="butt" stroke-width="0.5" points="74.8799,208.44 79.3481,208.44"/>
   <polyline stroke-linejoin="miter" fill="none" stroke="#262626" stroke-linecap="butt" stroke-width="0.5" points="74.8799,149.76 79.3481,149.76"/>
   <polyline stroke-linejoin="miter" fill="none" stroke="#262626" stroke-linecap="butt" stroke-width="0.5" points="74.8799,91.0801 79.3481,91.0801"/>
   <polyline stroke-linejoin="miter" fill="none" stroke="#262626" stroke-linecap="butt" stroke-width="0.5" points="74.8799,32.3999 79.3481,32.3999"/>
   <text font-weight="normal" xml:space="preserve" font-family="FreeSans" font-style="normal" font-size="10" transform="translate(63.8755,388.48) rotate(-0,6,-4)">
    <tspan fill="rgb(38,38,38)" y="-0" x="0 ">0</tspan>
   </text>
   <text font-weight="normal" xml:space="preserve" font-family="FreeSans" font-style="normal" font-size="10" transform="translate(63.8755,329.8) rotate(-0,6,-4)">
    <tspan fill="rgb(38,38,38)" y="-0" x="0 ">2</tspan>
   </text>
   <text font-weight="normal" xml:space="preserve" font-family="FreeSans" font-style="normal" font-size="10" transform="translate(63.8755,271.12) rotate(-0,6,-4)">
    <tspan fill="rgb(38,38,38)" y="-0" x="0 ">4</tspan>
   </text>
   <text font-weight="normal" xml:space="preserve" font-family="FreeSans" font-style="normal" font-size="10" transform="translate(63.8755,212.44) rotate(-0,6,-4)">
    <tspan fill="rgb(38,38,38)" y="-0" x="0 ">6</tspan>
   </text>
   <text font-weight="normal" xml:space="preserve" font-family="FreeSans" font-style="normal" font-size="10" transform="translate(63.8755,153.76) rotate(-0,6,-4)">
    <tspan fill="rgb(38,38,38)" y="-0" x="0 ">8</tspan>
   </text>
   <text font-weight="normal" xml:space="preserve" font-family="FreeSans" font-style="normal" font-size="10" transform="translate(57.8755,95.08) rotate(-0,12,-4)">
    <tspan fill="rgb(38,38,38)" y="-0" x="0 6 ">10</tspan>
   </text>
   <text font-weight="normal" xml:space="preserve" font-family="FreeSans" font-style="normal" font-size="10" transform="translate(57.8755,36.4) rotate(-0,12,-4)">
    <tspan fill="rgb(38,38,38)" y="-0" x="0 6 ">12</tspan>
   </text>
   <polyline stroke-linejoin="miter" stroke-dasharray="16,0" fill="none" stroke="#262626" stroke-linecap="square" stroke-width="0.5" points="74.8799,384.48 521.28,384.48"/>
   <polyline stroke-linejoin="miter" stroke-dasharray="16,0" fill="none" stroke="#262626" stroke-linecap="square" stroke-width="0.5" points="74.8799,384.48 74.8799,32.3999"/>
   <text font-weight="normal" xml:space="preserve" font-family="FreeSans" font-style="normal" font-size="11" transform="translate(268.08,415.982) rotate(-0,30,-11)">
    <tspan fill="rgb(38,38,38)" y="-2" x="0 8 10 15 18 24 30 36 42 45 48 57 ">Distance [m]</tspan>
   </text>
   <text font-weight="normal" xml:space="preserve" font-family="FreeSans" font-style="normal" font-size="11" transform="translate(26.3755,208.44) rotate(-90,26.5,0)">
    <tspan fill="rgb(38,38,38)" y="-2" x="0 7 9 12 14 17 23 29 35 38 41 50 ">Altitude [m]</tspan>
   </text>
   <text font-weight="bold" xml:space="preserve" font-family="FreeSans" font-style="normal" font-size="11" transform="translate(250.58,22.4) rotate(-0,47.5,0)">
    <tspan fill="rgb(0,0,0)" y="-1" x="0 7 13 19 25 29 38 42 46 49 57 60 66 70 76 83 89 ">Take-Off Distance</tspan>
   </text>
   <polyline stroke-linejoin="round" fill="none" stroke="#0071bc" stroke-linecap="butt" stroke-width="3.5" points="74.8799,384.48 75.915,384.48 76.9497,384.48 77.9849,384.48 79.0195,384.48 80.0547,384.48 81.0894,384.48 82.1245,384.48 83.1597,384.48 84.1943,384.48 85.2295,384.48 86.2642,384.48 87.2993,384.48 88.334,384.48 89.3691,384.48 90.4038,384.48 91.439,384.48 92.4736,384.48 93.5088,384.48 94.5439,384.48 95.5786,384.48 96.6138,384.48 97.6484,384.48 98.6836,384.48 99.7183,384.48 100.753,384.48 101.788,384.48 102.823,384.48 103.858,384.48 104.893,384.48 105.928,384.48 106.963,384.48 107.998,384.48 109.033,384.48 110.068,384.48 111.103,384.48 112.138,384.48 113.172,384.48 114.208,384.48 115.242,384.48 116.277,384.48 117.312,384.48 118.347,384.48 119.382,384.48 120.417,384.48 121.452,384.48 122.487,384.48 123.522,384.48 124.557,384.48 125.592,384.48 126.626,384.48 127.662,384.48 128.696,384.48 129.731,384.48 130.766,384.48 131.801,384.48 132.836,384.48 133.871,384.48 134.906,384.48 135.941,384.48 136.976,384.48 138.011,384.48 139.046,384.48 140.081,384.48 141.116,384.48 142.15,384.48 143.186,384.48 144.22,384.48 145.255,384.48 146.291,384.48 147.325,384.48 148.36,384.48 149.395,384.48 150.43,384.48 151.465,384.48 152.5,384.48 153.535,384.48 154.57,384.48 155.604,384.48 156.64,384.48 157.675,384.48 158.709,384.48 159.745,384.48 160.779,384.48 161.814,384.48 162.849,384.48 163.884,384.48 164.919,384.48 165.954,384.48 166.989,384.48 168.024,384.48 169.059,384.48 170.094,384.48 171.129,384.48 172.164,384.48 173.199,384.48 174.233,384.48 175.269,384.48 176.303,384.48 177.338,384.48 177.338,384.48 180.535,384.448 183.732,384.353 186.929,384.193 190.125,383.969 193.323,383.682 196.52,383.331 199.716,382.916 202.913,382.437 206.11,381.895 209.307,381.288 212.504,380.618 215.701,379.883 218.897,379.085 222.094,378.223 225.291,377.298 228.488,376.308 231.685,375.254 234.882,374.137 238.079,372.956 241.275,371.711 244.472,370.402 247.669,369.03 250.866,367.593 254.063,366.093 257.26,364.528 260.457,362.9 263.653,361.208 266.85,359.453 270.047,357.633 273.244,355.749 276.441,353.802 279.638,351.791 282.834,349.715 286.031,347.576 289.228,345.374 292.425,343.106 295.622,340.776 298.819,338.381 302.016,335.923 305.212,333.4 308.409,330.814 311.606,328.165 314.803,325.451 318,322.673 321.197,319.831 324.394,316.925 327.59,313.956 330.787,310.922 333.984,307.825 337.181,304.664 340.378,301.439 343.575,298.15 346.771,294.797 349.968,291.38 353.165,287.899 356.362,284.354 359.559,280.746 362.756,277.073 365.953,273.337 369.149,269.537 372.347,265.672 375.543,261.744 378.74,257.752 381.937,253.696 385.134,249.576 388.331,245.392 391.527,241.144 394.725,236.832 397.921,232.456 401.118,228.016 404.315,223.513 407.512,218.945 410.708,214.313 413.905,209.617 417.103,204.858 420.299,200.034 423.496,195.146 426.693,190.195 429.89,185.179 433.086,180.1 436.284,174.956 439.48,169.749 442.677,164.477 445.874,159.141 449.071,153.742 452.268,148.278 455.465,142.75 458.662,137.158 461.858,131.502 465.055,125.783 468.252,119.999 471.449,114.151 474.646,108.239 477.843,102.263 481.04,96.2231 484.236,90.1191 487.433,83.9507 490.63,77.7188 493.827,71.4224"/>
   <polyline stroke-linejoin="round" fill="none" stroke="#d85218" stroke-linecap="butt" stroke-width="3.5" points="74.8799,384.48 493.827,384.48"/>
   <polyline stroke-linejoin="round" fill="none" stroke="#00ff00" stroke-linecap="butt" stroke-width="3.5" points="74.8799,384.48 335.583,384.48"/>
  </g>
  <clipPath id="cp00576432">
   <polygon points="0,432 576,432 576,0 0,0"/>
  </clipPath>
  <g clip-path="url(#cp00576432)">
   <polygon shape-rendering="crispEdges" fill="#ffffff" points="86.4233,92.1152 194.282,92.1152 194.282,43.9434 86.4233,43.9434"/>
   <polyline stroke-linejoin="miter" stroke-dasharray="16,0" fill="none" stroke="#262626" stroke-linecap="square" stroke-width="0.5" points="86.4233,92.1152 194.282,92.1152"/>
   <polyline stroke-linejoin="miter" stroke-dasharray="16,0" fill="none" stroke="#262626" stroke-linecap="square" stroke-width="0.5" points="86.4233,43.9434 194.282,43.9434"/>
   <polyline stroke-linejoin="miter" stroke-dasharray="16,0" fill="none" stroke="#262626" stroke-linecap="square" stroke-width="0.5" points="86.4233,92.1152 86.4233,43.9434"/>
   <polyline stroke-linejoin="miter" stroke-dasharray="16,0" fill="none" stroke="#262626" stroke-linecap="square" stroke-width="0.5" points="194.282,92.1152 194.282,43.9434"/>
   <text font-weight="normal" xml:space="preserve" font-family="FreeSans" font-style="normal" font-size="9" transform="translate(114.801,56.972) rotate(-0,-0,-5)">
    <tspan fill="rgb(0,0,0)" y="-2" x="0 6 9 14 16 21 26 29 34 37 ">Trajectory</tspan>
   </text>
   <text font-weight="normal" xml:space="preserve" font-family="FreeSans" font-style="normal" font-size="9" transform="translate(114.801,72.0293) rotate(-0,-0,-4)">
    <tspan fill="rgb(0,0,0)" y="-0" x="0 6 11 16 21 24 31 34 37 39 45 47 51 54 59 64 69 ">Take-Off Distance</tspan>
   </text>
   <text font-weight="normal" xml:space="preserve" font-family="FreeSans" font-style="normal" font-size="9" transform="translate(114.801,88.5867) rotate(-0,-0,-4.5)">
    <tspan fill="rgb(0,0,0)" y="-1" x="0 6 11 16 21 24 31 34 37 39 45 50 ">Take-Off Run</tspan>
   </text>
   <polyline stroke-linejoin="round" fill="none" stroke="#0071bc" stroke-linecap="butt" stroke-width="3.5" points="89.79,51.9722 111.434,51.9722"/>
   <polyline stroke-linejoin="round" fill="none" stroke="#d85218" stroke-linecap="butt" stroke-width="3.5" points="89.79,68.0293 111.434,68.0293"/>
   <polyline stroke-linejoin="round" fill="none" stroke="#00ff00" stroke-linecap="butt" stroke-width="3.5" points="89.79,84.0869 111.434,84.0869"/>
  </g>
 </g>
</svg>
