<?xml version='1.0' encoding='UTF-8' standalone='no'?>
<svg height="432pt" xmlns="http://www.w3.org/2000/svg" xmlns:xlink="http://www.w3.org/1999/xlink" width="576pt" viewBox="0 0 576 432">
 <title>gl2ps_renderer figure</title>
 <desc>
Creator: GL2PS 1.4.2, (C) 1999-2020 C. Geuzaine
For: Octave
CreationDate: Mon Dec 14 22:23:03 2020
</desc>
 <defs/>
 <polygon fill="#ffffff" points="0,0 576,0 576,432 0,432"/>
 <g>
  <polygon fill="#ffffff" points="0,432 576,432 576,0 0,0" shape-rendering="crispEdges"/>
  <clipPath id="cp00576432">
   <polygon points="0,432 576,432 576,0 0,0"/>
  </clipPath>
  <g clip-path="url(#cp00576432)">
   <polygon fill="#ffffff" points="74.8799,384.48 521.28,384.48 521.28,32.3999 74.8799,32.3999" shape-rendering="crispEdges"/>
   <polyline stroke="#262626" stroke-linecap="butt" fill="none" stroke-width="0.5" stroke-linejoin="miter" stroke-opacity="0.15" points="74.8799,384.48 74.8799,32.3999" stroke-dasharray="16,0"/>
   <polyline stroke="#262626" stroke-linecap="butt" fill="none" stroke-width="0.5" stroke-linejoin="miter" stroke-opacity="0.15" points="138.651,384.48 138.651,32.3999" stroke-dasharray="16,0"/>
   <polyline stroke="#262626" stroke-linecap="butt" fill="none" stroke-width="0.5" stroke-linejoin="miter" stroke-opacity="0.15" points="202.423,384.48 202.423,32.3999" stroke-dasharray="16,0"/>
   <polyline stroke="#262626" stroke-linecap="butt" fill="none" stroke-width="0.5" stroke-linejoin="miter" stroke-opacity="0.15" points="266.194,384.48 266.194,32.3999" stroke-dasharray="16,0"/>
   <polyline stroke="#262626" stroke-linecap="butt" fill="none" stroke-width="0.5" stroke-linejoin="miter" stroke-opacity="0.15" points="329.966,384.48 329.966,32.3999" stroke-dasharray="16,0"/>
   <polyline stroke="#262626" stroke-linecap="butt" fill="none" stroke-width="0.5" stroke-linejoin="miter" stroke-opacity="0.15" points="393.737,384.48 393.737,32.3999" stroke-dasharray="16,0"/>
   <polyline stroke="#262626" stroke-linecap="butt" fill="none" stroke-width="0.5" stroke-linejoin="miter" stroke-opacity="0.15" points="457.509,384.48 457.509,32.3999" stroke-dasharray="16,0"/>
   <polyline stroke="#262626" stroke-linecap="butt" fill="none" stroke-width="0.5" stroke-linejoin="miter" stroke-opacity="0.15" points="521.28,384.48 521.28,32.3999" stroke-dasharray="16,0"/>
   <polyline stroke="#262626" stroke-linecap="butt" fill="none" stroke-width="0.5" stroke-linejoin="miter" points="74.8799,384.48 74.8799,380.015"/>
   <polyline stroke="#262626" stroke-linecap="butt" fill="none" stroke-width="0.5" stroke-linejoin="miter" points="74.8799,32.3999 74.8799,36.8652"/>
   <polyline stroke="#262626" stroke-linecap="butt" fill="none" stroke-width="0.5" stroke-linejoin="miter" points="138.651,384.48 138.651,380.015"/>
   <polyline stroke="#262626" stroke-linecap="butt" fill="none" stroke-width="0.5" stroke-linejoin="miter" points="138.651,32.3999 138.651,36.8652"/>
   <polyline stroke="#262626" stroke-linecap="butt" fill="none" stroke-width="0.5" stroke-linejoin="miter" points="202.423,384.48 202.423,380.015"/>
   <polyline stroke="#262626" stroke-linecap="butt" fill="none" stroke-width="0.5" stroke-linejoin="miter" points="202.423,32.3999 202.423,36.8652"/>
   <polyline stroke="#262626" stroke-linecap="butt" fill="none" stroke-width="0.5" stroke-linejoin="miter" points="266.194,384.48 266.194,380.015"/>
   <polyline stroke="#262626" stroke-linecap="butt" fill="none" stroke-width="0.5" stroke-linejoin="miter" points="266.194,32.3999 266.194,36.8652"/>
   <polyline stroke="#262626" stroke-linecap="butt" fill="none" stroke-width="0.5" stroke-linejoin="miter" points="329.966,384.48 329.966,380.015"/>
   <polyline stroke="#262626" stroke-linecap="butt" fill="none" stroke-width="0.5" stroke-linejoin="miter" points="329.966,32.3999 329.966,36.8652"/>
   <polyline stroke="#262626" stroke-linecap="butt" fill="none" stroke-width="0.5" stroke-linejoin="miter" points="393.737,384.48 393.737,380.015"/>
   <polyline stroke="#262626" stroke-linecap="butt" fill="none" stroke-width="0.5" stroke-linejoin="miter" points="393.737,32.3999 393.737,36.8652"/>
   <polyline stroke="#262626" stroke-linecap="butt" fill="none" stroke-width="0.5" stroke-linejoin="miter" points="457.509,384.48 457.509,380.015"/>
   <polyline stroke="#262626" stroke-linecap="butt" fill="none" stroke-width="0.5" stroke-linejoin="miter" points="457.509,32.3999 457.509,36.8652"/>
   <polyline stroke="#262626" stroke-linecap="butt" fill="none" stroke-width="0.5" stroke-linejoin="miter" points="521.28,384.48 521.28,380.015"/>
   <polyline stroke="#262626" stroke-linecap="butt" fill="none" stroke-width="0.5" stroke-linejoin="miter" points="521.28,32.3999 521.28,36.8652"/>
   <text font-style="normal" transform="translate(71.88,399.982) rotate(-0,3,-8)" font-size="10" xml:space="preserve" font-weight="normal" font-family="FreeSans">
    <tspan x="0 " fill="rgb(38,38,38)" y="-0">0</tspan>
   </text>
   <text font-style="normal" transform="translate(135.651,399.982) rotate(-0,3,-8)" font-size="10" xml:space="preserve" font-weight="normal" font-family="FreeSans">
    <tspan x="0 " fill="rgb(38,38,38)" y="-0">5</tspan>
   </text>
   <text font-style="normal" transform="translate(196.423,399.982) rotate(-0,6,-8)" font-size="10" xml:space="preserve" font-weight="normal" font-family="FreeSans">
    <tspan x="0 6 " fill="rgb(38,38,38)" y="-0">10</tspan>
   </text>
   <text font-style="normal" transform="translate(260.194,399.982) rotate(-0,6,-8)" font-size="10" xml:space="preserve" font-weight="normal" font-family="FreeSans">
    <tspan x="0 6 " fill="rgb(38,38,38)" y="-0">15</tspan>
   </text>
   <text font-style="normal" transform="translate(323.966,399.982) rotate(-0,6,-8)" font-size="10" xml:space="preserve" font-weight="normal" font-family="FreeSans">
    <tspan x="0 6 " fill="rgb(38,38,38)" y="-0">20</tspan>
   </text>
   <text font-style="normal" transform="translate(387.737,399.982) rotate(-0,6,-8)" font-size="10" xml:space="preserve" font-weight="normal" font-family="FreeSans">
    <tspan x="0 6 " fill="rgb(38,38,38)" y="-0">25</tspan>
   </text>
   <text font-style="normal" transform="translate(451.509,399.982) rotate(-0,6,-8)" font-size="10" xml:space="preserve" font-weight="normal" font-family="FreeSans">
    <tspan x="0 6 " fill="rgb(38,38,38)" y="-0">30</tspan>
   </text>
   <text font-style="normal" transform="translate(515.28,399.982) rotate(-0,6,-8)" font-size="10" xml:space="preserve" font-weight="normal" font-family="FreeSans">
    <tspan x="0 6 " fill="rgb(38,38,38)" y="-0">35</tspan>
   </text>
   <polyline stroke="#262626" stroke-linecap="butt" fill="none" stroke-width="0.5" stroke-linejoin="miter" stroke-opacity="0.15" points="74.8799,384.48 521.28,384.48" stroke-dasharray="16,0"/>
   <polyline stroke="#262626" stroke-linecap="butt" fill="none" stroke-width="0.5" stroke-linejoin="miter" stroke-opacity="0.15" points="74.8799,314.064 521.28,314.064" stroke-dasharray="16,0"/>
   <polyline stroke="#262626" stroke-linecap="butt" fill="none" stroke-width="0.5" stroke-linejoin="miter" stroke-opacity="0.15" points="74.8799,243.648 521.28,243.648" stroke-dasharray="16,0"/>
   <polyline stroke="#262626" stroke-linecap="butt" fill="none" stroke-width="0.5" stroke-linejoin="miter" stroke-opacity="0.15" points="74.8799,173.232 521.28,173.232" stroke-dasharray="16,0"/>
   <polyline stroke="#262626" stroke-linecap="butt" fill="none" stroke-width="0.5" stroke-linejoin="miter" stroke-opacity="0.15" points="74.8799,102.816 521.28,102.816" stroke-dasharray="16,0"/>
   <polyline stroke="#262626" stroke-linecap="butt" fill="none" stroke-width="0.5" stroke-linejoin="miter" stroke-opacity="0.15" points="74.8799,32.3999 521.28,32.3999" stroke-dasharray="16,0"/>
   <polyline stroke="#262626" stroke-linecap="butt" fill="none" stroke-width="0.5" stroke-linejoin="miter" points="74.8799,384.48 79.3481,384.48"/>
   <polyline stroke="#262626" stroke-linecap="butt" fill="none" stroke-width="0.5" stroke-linejoin="miter" points="521.28,384.48 516.812,384.48"/>
   <polyline stroke="#262626" stroke-linecap="butt" fill="none" stroke-width="0.5" stroke-linejoin="miter" points="74.8799,314.064 79.3481,314.064"/>
   <polyline stroke="#262626" stroke-linecap="butt" fill="none" stroke-width="0.5" stroke-linejoin="miter" points="521.28,314.064 516.812,314.064"/>
   <polyline stroke="#262626" stroke-linecap="butt" fill="none" stroke-width="0.5" stroke-linejoin="miter" points="74.8799,243.648 79.3481,243.648"/>
   <polyline stroke="#262626" stroke-linecap="butt" fill="none" stroke-width="0.5" stroke-linejoin="miter" points="521.28,243.648 516.812,243.648"/>
   <polyline stroke="#262626" stroke-linecap="butt" fill="none" stroke-width="0.5" stroke-linejoin="miter" points="74.8799,173.232 79.3481,173.232"/>
   <polyline stroke="#262626" stroke-linecap="butt" fill="none" stroke-width="0.5" stroke-linejoin="miter" points="521.28,173.232 516.812,173.232"/>
   <polyline stroke="#262626" stroke-linecap="butt" fill="none" stroke-width="0.5" stroke-linejoin="miter" points="74.8799,102.816 79.3481,102.816"/>
   <polyline stroke="#262626" stroke-linecap="butt" fill="none" stroke-width="0.5" stroke-linejoin="miter" points="521.28,102.816 516.812,102.816"/>
   <polyline stroke="#262626" stroke-linecap="butt" fill="none" stroke-width="0.5" stroke-linejoin="miter" points="74.8799,32.3999 79.3481,32.3999"/>
   <polyline stroke="#262626" stroke-linecap="butt" fill="none" stroke-width="0.5" stroke-linejoin="miter" points="521.28,32.3999 516.812,32.3999"/>
   <text font-style="normal" transform="translate(63.8755,388.48) rotate(-0,6,-4)" font-size="10" xml:space="preserve" font-weight="normal" font-family="FreeSans">
    <tspan x="0 " fill="rgb(38,38,38)" y="-0">0</tspan>
   </text>
   <text font-style="normal" transform="translate(54.8755,318.064) rotate(-0,15,-4)" font-size="10" xml:space="preserve" font-weight="normal" font-family="FreeSans">
    <tspan x="0 6 9 " fill="rgb(38,38,38)" y="-0">0.1</tspan>
   </text>
   <text font-style="normal" transform="translate(54.8755,247.648) rotate(-0,15,-4)" font-size="10" xml:space="preserve" font-weight="normal" font-family="FreeSans">
    <tspan x="0 6 9 " fill="rgb(38,38,38)" y="-0">0.2</tspan>
   </text>
   <text font-style="normal" transform="translate(54.8755,177.232) rotate(-0,15,-4)" font-size="10" xml:space="preserve" font-weight="normal" font-family="FreeSans">
    <tspan x="0 6 9 " fill="rgb(38,38,38)" y="-0">0.3</tspan>
   </text>
   <text font-style="normal" transform="translate(54.8755,106.816) rotate(-0,15,-4)" font-size="10" xml:space="preserve" font-weight="normal" font-family="FreeSans">
    <tspan x="0 6 9 " fill="rgb(38,38,38)" y="-0">0.4</tspan>
   </text>
   <text font-style="normal" transform="translate(54.8755,36.4) rotate(-0,15,-4)" font-size="10" xml:space="preserve" font-weight="normal" font-family="FreeSans">
    <tspan x="0 6 9 " fill="rgb(38,38,38)" y="-0">0.5</tspan>
   </text>
   <polyline stroke="#262626" stroke-linecap="square" fill="none" stroke-width="0.5" stroke-linejoin="miter" points="74.8799,384.48 521.28,384.48" stroke-dasharray="16,0"/>
   <polyline stroke="#262626" stroke-linecap="square" fill="none" stroke-width="0.5" stroke-linejoin="miter" points="74.8799,32.3999 521.28,32.3999" stroke-dasharray="16,0"/>
   <polyline stroke="#262626" stroke-linecap="square" fill="none" stroke-width="0.5" stroke-linejoin="miter" points="74.8799,384.48 74.8799,32.3999" stroke-dasharray="16,0"/>
   <polyline stroke="#262626" stroke-linecap="square" fill="none" stroke-width="0.5" stroke-linejoin="miter" points="521.28,384.48 521.28,32.3999" stroke-dasharray="16,0"/>
   <text font-style="normal" transform="translate(270.08,415.982) rotate(-0,28,-11)" font-size="11" xml:space="preserve" font-weight="normal" font-family="FreeSans">
    <tspan x="0 7 13 22 24 30 32 38 41 44 53 " fill="rgb(38,38,38)" y="-2">Semiala [m]</tspan>
   </text>
   <text font-style="normal" transform="translate(5.87552,208.44) rotate(-90,44,0)" font-size="11" xml:space="preserve" font-weight="normal" font-family="FreeSans">
    <tspan x="0 8 10 13 17 20 26 28 31 34 37 45 51 57 60 63 65 71 73 79 85 " fill="rgb(38,38,38)" y="-0">Cl - Lift Coefficient</tspan>
   </text>
   <text font-style="normal" transform="translate(184.58,22.4) rotate(-0,113.5,0)" font-size="11" xml:space="preserve" font-weight="bold" font-family="FreeSans">
    <tspan x="0 8 15 22 28 38 44 51 55 62 65 73 76 79 83 86 93 99 106 110 113 119 122 129 135 138 141 147 150 157 160 167 173 179 182 189 196 200 204 210 217 221 " fill="rgb(0,0,0)" y="-1">Andamento Cl - Teoria della Linea Portante</tspan>
   </text>
   <polyline stroke="#0071bc" stroke-linecap="butt" fill="none" stroke-width="0.5" stroke-linejoin="round" points="498.357,384.48 498.345,377.902 498.305,371.346 498.24,364.829 498.148,358.362 498.031,351.958 497.888,345.624 497.718,339.368 497.522,333.198 497.3,327.12 497.052,321.138 496.778,315.256 496.478,309.478 496.152,303.808 495.8,298.247 495.422,292.797 495.019,287.461 494.588,282.239 494.133,277.131 493.651,272.139 493.144,267.262 492.611,262.5 492.052,257.852 491.467,253.318 490.856,248.896 490.221,244.586 489.559,240.386 488.872,236.294 488.159,232.31 487.42,228.431 486.657,224.656 485.868,220.981 485.053,217.407 484.213,213.93 483.349,210.548 482.458,207.26 481.543,204.063 480.603,200.955 479.637,197.934 478.646,194.997 477.631,192.142 476.591,189.368 475.526,186.672 474.437,184.052 473.322,181.505 472.183,179.031 471.02,176.625 469.832,174.288 468.62,172.016 467.383,169.808 466.123,167.662 464.837,165.575 463.528,163.546 462.196,161.574 460.839,159.656 459.458,157.791 458.054,155.977 456.626,154.212 455.175,152.496 453.7,150.826 452.201,149.2 450.68,147.619 449.135,146.079 447.567,144.581 445.976,143.121 444.362,141.7 442.726,140.316 441.067,138.968 439.385,137.654 437.681,136.375 435.954,135.127 434.205,133.911 432.434,132.726 430.641,131.57 428.826,130.443 426.989,129.344 425.13,128.272 423.25,127.226 421.348,126.205 419.425,125.208 417.48,124.236 415.515,123.287 413.528,122.36 411.521,121.456 409.493,120.572 407.444,119.709 405.375,118.866 403.285,118.042 401.175,117.238 399.045,116.452 396.895,115.684 394.725,114.934 392.535,114.2 390.326,113.484 388.097,112.783 385.849,112.099 383.582,111.43 381.295,110.776 378.99,110.137 376.667,109.512 374.324,108.902 371.963,108.306 369.583,107.723 367.186,107.153 364.771,106.597 362.337,106.054 359.886,105.522 357.417,105.004 354.931,104.498 352.427,104.004 349.907,103.521 347.369,103.051 344.815,102.592 342.244,102.144 339.656,101.707 337.052,101.282 334.433,100.867 331.796,100.463 329.145,100.07 326.477,99.688 323.794,99.3164 321.096,98.9551 318.382,98.6045 315.653,98.2637 312.91,97.9336 310.151,97.6138 307.379,97.3042 304.592,97.0044 301.791,96.7153 298.976,96.436 296.146,96.167 293.304,95.9077 290.448,95.6592 287.578,95.4204 284.696,95.1919 281.8,94.9731 278.892,94.7651 275.971,94.5674 273.038,94.3799 270.092,94.2026 267.135,94.0356 264.166,93.8794 261.185,93.7334 258.192,93.5986 255.188,93.4741 252.173,93.3604 249.147,93.2578 246.11,93.1665 243.063,93.0859 240.006,93.0171 236.938,92.9595 233.86,92.9136 230.772,92.8794 227.675,92.8569 224.569,92.8472 221.453,92.8491 218.328,92.8638 215.194,92.8916 212.052,92.9316 208.901,92.9854 205.742,93.0527 202.575,93.1333 199.399,93.228 196.217,93.3374 193.026,93.4609 189.829,93.5996 186.625,93.7539 183.413,93.9233 180.195,94.1089 176.97,94.311 173.739,94.5303 170.502,94.7666 167.259,95.021 164.01,95.2935 160.756,95.5854 157.497,95.8965 154.232,96.2275 150.962,96.5801 147.688,96.9536 144.41,97.3496 141.126,97.769 137.839,98.2124 134.548,98.6807 131.254,99.1753 127.956,99.6973 124.654,100.248 121.35,100.828 118.043,101.439 114.733,102.084 111.42,102.764 108.105,103.48 104.789,104.236 101.47,105.035 98.1504,105.878 94.8286,106.771 91.5059,107.718 88.1816,108.724 84.8569,109.795 81.5317,110.943 78.2061,112.18 74.8799,113.536"/>
   <polyline stroke="#0071bc" stroke-linecap="round" fill="none" stroke-width="0.5" stroke-linejoin="round" points="501.357,384.48 500.785,386.243 499.285,387.333 497.431,387.333 495.931,386.243 495.357,384.48 495.931,382.717 497.431,381.627 499.285,381.627 500.785,382.717 501.357,384.48"/>
   <polyline stroke="#0071bc" stroke-linecap="round" fill="none" stroke-width="0.5" stroke-linejoin="round" points="501.345,377.902 500.771,379.665 499.271,380.755 497.417,380.755 495.917,379.665 495.345,377.902 495.917,376.138 497.417,375.048 499.271,375.048 500.771,376.138 501.345,377.902"/>
   <polyline stroke="#0071bc" stroke-linecap="round" fill="none" stroke-width="0.5" stroke-linejoin="round" points="501.306,371.346 500.732,373.109 499.232,374.199 497.378,374.199 495.878,373.109 495.305,371.346 495.878,369.583 497.378,368.493 499.232,368.493 500.732,369.583 501.306,371.346"/>
   <polyline stroke="#0071bc" stroke-linecap="round" fill="none" stroke-width="0.5" stroke-linejoin="round" points="501.24,364.829 500.667,366.592 499.167,367.682 497.313,367.682 495.813,366.592 495.24,364.829 495.813,363.065 497.313,361.975 499.167,361.975 500.667,363.065 501.24,364.829"/>
   <polyline stroke="#0071bc" stroke-linecap="round" fill="none" stroke-width="0.5" stroke-linejoin="round" points="501.148,358.362 500.576,360.125 499.076,361.215 497.222,361.215 495.722,360.125 495.148,358.362 495.722,356.599 497.222,355.509 499.076,355.509 500.576,356.599 501.148,358.362"/>
   <polyline stroke="#0071bc" stroke-linecap="round" fill="none" stroke-width="0.5" stroke-linejoin="round" points="501.031,351.958 500.458,353.721 498.958,354.811 497.104,354.811 495.604,353.721 495.031,351.958 495.604,350.194 497.104,349.104 498.958,349.104 500.458,350.194 501.031,351.958"/>
   <polyline stroke="#0071bc" stroke-linecap="round" fill="none" stroke-width="0.5" stroke-linejoin="round" points="500.888,345.624 500.314,347.387 498.814,348.477 496.96,348.477 495.46,347.387 494.888,345.624 495.46,343.86 496.96,342.771 498.814,342.771 500.314,343.86 500.888,345.624"/>
   <polyline stroke="#0071bc" stroke-linecap="round" fill="none" stroke-width="0.5" stroke-linejoin="round" points="500.718,339.368 500.145,341.132 498.645,342.222 496.791,342.222 495.291,341.132 494.718,339.368 495.291,337.605 496.791,336.515 498.645,336.515 500.145,337.605 500.718,339.368"/>
   <polyline stroke="#0071bc" stroke-linecap="round" fill="none" stroke-width="0.5" stroke-linejoin="round" points="500.522,333.198 499.949,334.962 498.449,336.052 496.595,336.052 495.095,334.962 494.522,333.198 495.095,331.435 496.595,330.345 498.449,330.345 499.949,331.435 500.522,333.198"/>
   <polyline stroke="#0071bc" stroke-linecap="round" fill="none" stroke-width="0.5" stroke-linejoin="round" points="500.3,327.12 499.727,328.883 498.227,329.973 496.373,329.973 494.873,328.883 494.3,327.12 494.873,325.356 496.373,324.267 498.227,324.267 499.727,325.356 500.3,327.12"/>
   <polyline stroke="#0071bc" stroke-linecap="round" fill="none" stroke-width="0.5" stroke-linejoin="round" points="500.052,321.138 499.479,322.901 497.979,323.991 496.125,323.991 494.625,322.901 494.052,321.138 494.625,319.374 496.125,318.284 497.979,318.284 499.479,319.374 500.052,321.138"/>
   <polyline stroke="#0071bc" stroke-linecap="round" fill="none" stroke-width="0.5" stroke-linejoin="round" points="499.778,315.256 499.205,317.019 497.705,318.109 495.851,318.109 494.351,317.019 493.778,315.256 494.351,313.492 495.851,312.402 497.705,312.402 499.205,313.492 499.778,315.256"/>
   <polyline stroke="#0071bc" stroke-linecap="round" fill="none" stroke-width="0.5" stroke-linejoin="round" points="499.478,309.478 498.905,311.241 497.405,312.331 495.551,312.331 494.051,311.241 493.478,309.478 494.051,307.715 495.551,306.625 497.405,306.625 498.905,307.715 499.478,309.478"/>
   <polyline stroke="#0071bc" stroke-linecap="round" fill="none" stroke-width="0.5" stroke-linejoin="round" points="499.152,303.808 498.579,305.571 497.079,306.661 495.225,306.661 493.725,305.571 493.152,303.808 493.725,302.044 495.225,300.954 497.079,300.954 498.579,302.044 499.152,303.808"/>
   <polyline stroke="#0071bc" stroke-linecap="round" fill="none" stroke-width="0.5" stroke-linejoin="round" points="498.8,298.247 498.228,300.01 496.728,301.1 494.873,301.1 493.373,300.01 492.8,298.247 493.373,296.483 494.873,295.394 496.728,295.394 498.228,296.483 498.8,298.247"/>
   <polyline stroke="#0071bc" stroke-linecap="round" fill="none" stroke-width="0.5" stroke-linejoin="round" points="498.422,292.797 497.849,294.561 496.349,295.65 494.495,295.65 492.995,294.561 492.422,292.797 492.995,291.034 494.495,289.944 496.349,289.944 497.849,291.034 498.422,292.797"/>
   <polyline stroke="#0071bc" stroke-linecap="round" fill="none" stroke-width="0.5" stroke-linejoin="round" points="498.019,287.461 497.445,289.224 495.945,290.314 494.091,290.314 492.591,289.224 492.019,287.461 492.591,285.698 494.091,284.608 495.945,284.608 497.445,285.698 498.019,287.461"/>
   <polyline stroke="#0071bc" stroke-linecap="round" fill="none" stroke-width="0.5" stroke-linejoin="round" points="497.588,282.239 497.016,284.002 495.516,285.092 493.662,285.092 492.162,284.002 491.588,282.239 492.162,280.476 493.662,279.386 495.516,279.386 497.016,280.476 497.588,282.239"/>
   <polyline stroke="#0071bc" stroke-linecap="round" fill="none" stroke-width="0.5" stroke-linejoin="round" points="497.133,277.131 496.56,278.895 495.06,279.984 493.206,279.984 491.706,278.895 491.133,277.131 491.706,275.368 493.206,274.278 495.06,274.278 496.56,275.368 497.133,277.131"/>
   <polyline stroke="#0071bc" stroke-linecap="round" fill="none" stroke-width="0.5" stroke-linejoin="round" points="496.651,272.139 496.078,273.902 494.579,274.992 492.724,274.992 491.224,273.902 490.651,272.139 491.224,270.376 492.724,269.286 494.579,269.286 496.078,270.376 496.651,272.139"/>
   <polyline stroke="#0071bc" stroke-linecap="round" fill="none" stroke-width="0.5" stroke-linejoin="round" points="496.144,267.262 495.571,269.025 494.071,270.115 492.217,270.115 490.717,269.025 490.144,267.262 490.717,265.499 492.217,264.409 494.071,264.409 495.571,265.499 496.144,267.262"/>
   <polyline stroke="#0071bc" stroke-linecap="round" fill="none" stroke-width="0.5" stroke-linejoin="round" points="495.611,262.5 495.038,264.263 493.538,265.353 491.684,265.353 490.184,264.263 489.611,262.5 490.184,260.737 491.684,259.647 493.538,259.647 495.038,260.737 495.611,262.5"/>
   <polyline stroke="#0071bc" stroke-linecap="round" fill="none" stroke-width="0.5" stroke-linejoin="round" points="495.052,257.852 494.479,259.615 492.979,260.705 491.125,260.705 489.625,259.615 489.052,257.852 489.625,256.089 491.125,254.999 492.979,254.999 494.479,256.089 495.052,257.852"/>
   <polyline stroke="#0071bc" stroke-linecap="round" fill="none" stroke-width="0.5" stroke-linejoin="round" points="494.467,253.318 493.894,255.081 492.394,256.171 490.54,256.171 489.04,255.081 488.467,253.318 489.04,251.555 490.54,250.465 492.394,250.465 493.894,251.555 494.467,253.318"/>
   <polyline stroke="#0071bc" stroke-linecap="round" fill="none" stroke-width="0.5" stroke-linejoin="round" points="493.856,248.896 493.284,250.66 491.784,251.75 489.93,251.75 488.43,250.66 487.856,248.896 488.43,247.133 489.93,246.043 491.784,246.043 493.284,247.133 493.856,248.896"/>
   <polyline stroke="#0071bc" stroke-linecap="round" fill="none" stroke-width="0.5" stroke-linejoin="round" points="493.221,244.586 492.647,246.35 491.147,247.439 489.293,247.439 487.793,246.35 487.221,244.586 487.793,242.823 489.293,241.733 491.147,241.733 492.647,242.823 493.221,244.586"/>
   <polyline stroke="#0071bc" stroke-linecap="round" fill="none" stroke-width="0.5" stroke-linejoin="round" points="492.559,240.386 491.986,242.149 490.486,243.239 488.632,243.239 487.132,242.149 486.559,240.386 487.132,238.623 488.632,237.533 490.486,237.533 491.986,238.623 492.559,240.386"/>
   <polyline stroke="#0071bc" stroke-linecap="round" fill="none" stroke-width="0.5" stroke-linejoin="round" points="491.872,236.294 491.299,238.058 489.799,239.148 487.945,239.148 486.445,238.058 485.872,236.294 486.445,234.531 487.945,233.441 489.799,233.441 491.299,234.531 491.872,236.294"/>
   <polyline stroke="#0071bc" stroke-linecap="round" fill="none" stroke-width="0.5" stroke-linejoin="round" points="491.159,232.31 490.586,234.074 489.086,235.164 487.232,235.164 485.732,234.074 485.159,232.31 485.732,230.547 487.232,229.457 489.086,229.457 490.586,230.547 491.159,232.31"/>
   <polyline stroke="#0071bc" stroke-linecap="round" fill="none" stroke-width="0.5" stroke-linejoin="round" points="490.42,228.431 489.848,230.194 488.348,231.284 486.494,231.284 484.994,230.194 484.42,228.431 484.994,226.668 486.494,225.578 488.348,225.578 489.848,226.668 490.42,228.431"/>
   <polyline stroke="#0071bc" stroke-linecap="round" fill="none" stroke-width="0.5" stroke-linejoin="round" points="489.657,224.656 489.084,226.419 487.584,227.509 485.73,227.509 484.23,226.419 483.657,224.656 484.23,222.892 485.73,221.802 487.584,221.802 489.084,222.892 489.657,224.656"/>
   <polyline stroke="#0071bc" stroke-linecap="round" fill="none" stroke-width="0.5" stroke-linejoin="round" points="488.868,220.981 488.295,222.745 486.795,223.834 484.941,223.834 483.441,222.745 482.868,220.981 483.441,219.218 484.941,218.128 486.795,218.128 488.295,219.218 488.868,220.981"/>
   <polyline stroke="#0071bc" stroke-linecap="round" fill="none" stroke-width="0.5" stroke-linejoin="round" points="488.053,217.407 487.48,219.17 485.98,220.26 484.126,220.26 482.626,219.17 482.053,217.407 482.626,215.644 484.126,214.554 485.98,214.554 487.48,215.644 488.053,217.407"/>
   <polyline stroke="#0071bc" stroke-linecap="round" fill="none" stroke-width="0.5" stroke-linejoin="round" points="487.213,213.93 486.641,215.693 485.141,216.783 483.287,216.783 481.787,215.693 481.213,213.93 481.787,212.167 483.287,211.077 485.141,211.077 486.641,212.167 487.213,213.93"/>
   <polyline stroke="#0071bc" stroke-linecap="round" fill="none" stroke-width="0.5" stroke-linejoin="round" points="486.349,210.548 485.775,212.312 484.275,213.401 482.421,213.401 480.921,212.312 480.349,210.548 480.921,208.785 482.421,207.695 484.275,207.695 485.775,208.785 486.349,210.548"/>
   <polyline stroke="#0071bc" stroke-linecap="round" fill="none" stroke-width="0.5" stroke-linejoin="round" points="485.458,207.26 484.885,209.023 483.385,210.113 481.531,210.113 480.031,209.023 479.458,207.26 480.031,205.497 481.531,204.407 483.385,204.407 484.885,205.497 485.458,207.26"/>
   <polyline stroke="#0071bc" stroke-linecap="round" fill="none" stroke-width="0.5" stroke-linejoin="round" points="484.543,204.063 483.97,205.826 482.47,206.916 480.616,206.916 479.116,205.826 478.543,204.063 479.116,202.3 480.616,201.21 482.47,201.21 483.97,202.3 484.543,204.063"/>
   <polyline stroke="#0071bc" stroke-linecap="round" fill="none" stroke-width="0.5" stroke-linejoin="round" points="483.603,200.955 483.029,202.718 481.529,203.808 479.675,203.808 478.175,202.718 477.603,200.955 478.175,199.191 479.675,198.102 481.529,198.102 483.029,199.191 483.603,200.955"/>
   <polyline stroke="#0071bc" stroke-linecap="round" fill="none" stroke-width="0.5" stroke-linejoin="round" points="482.637,197.934 482.064,199.697 480.564,200.787 478.71,200.787 477.21,199.697 476.637,197.934 477.21,196.17 478.71,195.08 480.564,195.08 482.064,196.17 482.637,197.934"/>
   <polyline stroke="#0071bc" stroke-linecap="round" fill="none" stroke-width="0.5" stroke-linejoin="round" points="481.646,194.997 481.074,196.76 479.574,197.85 477.719,197.85 476.219,196.76 475.646,194.997 476.219,193.233 477.719,192.144 479.574,192.144 481.074,193.233 481.646,194.997"/>
   <polyline stroke="#0071bc" stroke-linecap="round" fill="none" stroke-width="0.5" stroke-linejoin="round" points="480.631,192.142 480.058,193.905 478.558,194.995 476.704,194.995 475.204,193.905 474.631,192.142 475.204,190.379 476.704,189.289 478.558,189.289 480.058,190.379 480.631,192.142"/>
   <polyline stroke="#0071bc" stroke-linecap="round" fill="none" stroke-width="0.5" stroke-linejoin="round" points="479.591,189.368 479.018,191.131 477.518,192.221 475.664,192.221 474.164,191.131 473.591,189.368 474.164,187.604 475.664,186.515 477.518,186.515 479.018,187.604 479.591,189.368"/>
   <polyline stroke="#0071bc" stroke-linecap="round" fill="none" stroke-width="0.5" stroke-linejoin="round" points="478.526,186.672 477.953,188.435 476.453,189.525 474.599,189.525 473.099,188.435 472.526,186.672 473.099,184.909 474.599,183.819 476.453,183.819 477.953,184.909 478.526,186.672"/>
   <polyline stroke="#0071bc" stroke-linecap="round" fill="none" stroke-width="0.5" stroke-linejoin="round" points="477.437,184.052 476.863,185.815 475.363,186.905 473.509,186.905 472.009,185.815 471.437,184.052 472.009,182.288 473.509,181.199 475.363,181.199 476.863,182.288 477.437,184.052"/>
   <polyline stroke="#0071bc" stroke-linecap="round" fill="none" stroke-width="0.5" stroke-linejoin="round" points="476.322,181.505 475.749,183.269 474.249,184.358 472.395,184.358 470.895,183.269 470.322,181.505 470.895,179.742 472.395,178.652 474.249,178.652 475.749,179.742 476.322,181.505"/>
   <polyline stroke="#0071bc" stroke-linecap="round" fill="none" stroke-width="0.5" stroke-linejoin="round" points="475.183,179.031 474.61,180.794 473.11,181.884 471.256,181.884 469.756,180.794 469.183,179.031 469.756,177.267 471.256,176.177 473.11,176.177 474.61,177.267 475.183,179.031"/>
   <polyline stroke="#0071bc" stroke-linecap="round" fill="none" stroke-width="0.5" stroke-linejoin="round" points="474.02,176.625 473.447,178.389 471.947,179.479 470.093,179.479 468.593,178.389 468.02,176.625 468.593,174.862 470.093,173.772 471.947,173.772 473.447,174.862 474.02,176.625"/>
   <polyline stroke="#0071bc" stroke-linecap="round" fill="none" stroke-width="0.5" stroke-linejoin="round" points="472.832,174.288 472.259,176.051 470.759,177.141 468.905,177.141 467.405,176.051 466.832,174.288 467.405,172.524 468.905,171.435 470.759,171.435 472.259,172.524 472.832,174.288"/>
   <polyline stroke="#0071bc" stroke-linecap="round" fill="none" stroke-width="0.5" stroke-linejoin="round" points="471.62,172.016 471.046,173.779 469.546,174.869 467.692,174.869 466.192,173.779 465.62,172.016 466.192,170.253 467.692,169.163 469.546,169.163 471.046,170.253 471.62,172.016"/>
   <polyline stroke="#0071bc" stroke-linecap="round" fill="none" stroke-width="0.5" stroke-linejoin="round" points="470.383,169.808 469.81,171.571 468.31,172.661 466.456,172.661 464.956,171.571 464.383,169.808 464.956,168.044 466.456,166.955 468.31,166.955 469.81,168.044 470.383,169.808"/>
   <polyline stroke="#0071bc" stroke-linecap="round" fill="none" stroke-width="0.5" stroke-linejoin="round" points="469.123,167.662 468.549,169.425 467.049,170.515 465.195,170.515 463.695,169.425 463.123,167.662 463.695,165.898 465.195,164.808 467.049,164.808 468.549,165.898 469.123,167.662"/>
   <polyline stroke="#0071bc" stroke-linecap="round" fill="none" stroke-width="0.5" stroke-linejoin="round" points="467.837,165.575 467.265,167.338 465.765,168.428 463.911,168.428 462.411,167.338 461.837,165.575 462.411,163.812 463.911,162.722 465.765,162.722 467.265,163.812 467.837,165.575"/>
   <polyline stroke="#0071bc" stroke-linecap="round" fill="none" stroke-width="0.5" stroke-linejoin="round" points="466.528,163.546 465.956,165.31 464.456,166.399 462.602,166.399 461.102,165.31 460.528,163.546 461.102,161.783 462.602,160.693 464.456,160.693 465.956,161.783 466.528,163.546"/>
   <polyline stroke="#0071bc" stroke-linecap="round" fill="none" stroke-width="0.5" stroke-linejoin="round" points="465.196,161.574 464.623,163.337 463.123,164.427 461.269,164.427 459.769,163.337 459.196,161.574 459.769,159.811 461.269,158.721 463.123,158.721 464.623,159.811 465.196,161.574"/>
   <polyline stroke="#0071bc" stroke-linecap="round" fill="none" stroke-width="0.5" stroke-linejoin="round" points="463.839,159.656 463.266,161.419 461.766,162.509 459.912,162.509 458.412,161.419 457.839,159.656 458.412,157.893 459.912,156.803 461.766,156.803 463.266,157.893 463.839,159.656"/>
   <polyline stroke="#0071bc" stroke-linecap="round" fill="none" stroke-width="0.5" stroke-linejoin="round" points="462.458,157.791 461.885,159.554 460.385,160.644 458.531,160.644 457.031,159.554 456.458,157.791 457.031,156.027 458.531,154.938 460.385,154.938 461.885,156.027 462.458,157.791"/>
   <polyline stroke="#0071bc" stroke-linecap="round" fill="none" stroke-width="0.5" stroke-linejoin="round" points="461.054,155.977 460.481,157.74 458.981,158.83 457.127,158.83 455.627,157.74 455.054,155.977 455.627,154.213 457.127,153.124 458.981,153.124 460.481,154.213 461.054,155.977"/>
   <polyline stroke="#0071bc" stroke-linecap="round" fill="none" stroke-width="0.5" stroke-linejoin="round" points="459.626,154.212 459.053,155.976 457.553,157.065 455.699,157.065 454.199,155.976 453.626,154.212 454.199,152.449 455.699,151.359 457.553,151.359 459.053,152.449 459.626,154.212"/>
   <polyline stroke="#0071bc" stroke-linecap="round" fill="none" stroke-width="0.5" stroke-linejoin="round" points="458.175,152.496 457.602,154.259 456.102,155.349 454.248,155.349 452.748,154.259 452.175,152.496 452.748,150.732 454.248,149.643 456.102,149.643 457.602,150.732 458.175,152.496"/>
   <polyline stroke="#0071bc" stroke-linecap="round" fill="none" stroke-width="0.5" stroke-linejoin="round" points="456.7,150.826 456.126,152.589 454.627,153.679 452.772,153.679 451.272,152.589 450.7,150.826 451.272,149.062 452.772,147.972 454.627,147.972 456.126,149.062 456.7,150.826"/>
   <polyline stroke="#0071bc" stroke-linecap="round" fill="none" stroke-width="0.5" stroke-linejoin="round" points="455.201,149.2 454.628,150.964 453.128,152.053 451.274,152.053 449.774,150.964 449.201,149.2 449.774,147.437 451.274,146.347 453.128,146.347 454.628,147.437 455.201,149.2"/>
   <polyline stroke="#0071bc" stroke-linecap="round" fill="none" stroke-width="0.5" stroke-linejoin="round" points="453.68,147.619 453.107,149.382 451.607,150.472 449.753,150.472 448.253,149.382 447.68,147.619 448.253,145.855 449.753,144.766 451.607,144.766 453.107,145.855 453.68,147.619"/>
   <polyline stroke="#0071bc" stroke-linecap="round" fill="none" stroke-width="0.5" stroke-linejoin="round" points="452.135,146.079 451.562,147.842 450.062,148.932 448.208,148.932 446.708,147.842 446.135,146.079 446.708,144.316 448.208,143.226 450.062,143.226 451.562,144.316 452.135,146.079"/>
   <polyline stroke="#0071bc" stroke-linecap="round" fill="none" stroke-width="0.5" stroke-linejoin="round" points="450.567,144.581 449.994,146.344 448.494,147.434 446.64,147.434 445.14,146.344 444.567,144.581 445.14,142.817 446.64,141.727 448.494,141.727 449.994,142.817 450.567,144.581"/>
   <polyline stroke="#0071bc" stroke-linecap="round" fill="none" stroke-width="0.5" stroke-linejoin="round" points="448.976,143.121 448.403,144.884 446.903,145.974 445.049,145.974 443.549,144.884 442.976,143.121 443.549,141.358 445.049,140.268 446.903,140.268 448.403,141.358 448.976,143.121"/>
   <polyline stroke="#0071bc" stroke-linecap="round" fill="none" stroke-width="0.5" stroke-linejoin="round" points="447.362,141.7 446.79,143.463 445.29,144.553 443.436,144.553 441.936,143.463 441.362,141.7 441.936,139.937 443.436,138.847 445.29,138.847 446.79,139.937 447.362,141.7"/>
   <polyline stroke="#0071bc" stroke-linecap="round" fill="none" stroke-width="0.5" stroke-linejoin="round" points="445.726,140.316 445.153,142.08 443.653,143.169 441.799,143.169 440.299,142.08 439.726,140.316 440.299,138.553 441.799,137.463 443.653,137.463 445.153,138.553 445.726,140.316"/>
   <polyline stroke="#0071bc" stroke-linecap="round" fill="none" stroke-width="0.5" stroke-linejoin="round" points="444.067,138.968 443.494,140.731 441.994,141.821 440.14,141.821 438.64,140.731 438.067,138.968 438.64,137.205 440.14,136.115 441.994,136.115 443.494,137.205 444.067,138.968"/>
   <polyline stroke="#0071bc" stroke-linecap="round" fill="none" stroke-width="0.5" stroke-linejoin="round" points="442.385,137.654 441.812,139.417 440.312,140.507 438.458,140.507 436.958,139.417 436.385,137.654 436.958,135.891 438.458,134.801 440.312,134.801 441.812,135.891 442.385,137.654"/>
   <polyline stroke="#0071bc" stroke-linecap="round" fill="none" stroke-width="0.5" stroke-linejoin="round" points="440.681,136.375 440.108,138.138 438.608,139.228 436.753,139.228 435.253,138.138 434.681,136.375 435.253,134.611 436.753,133.521 438.608,133.521 440.108,134.611 440.681,136.375"/>
   <polyline stroke="#0071bc" stroke-linecap="round" fill="none" stroke-width="0.5" stroke-linejoin="round" points="438.954,135.127 438.381,136.891 436.881,137.98 435.027,137.98 433.527,136.891 432.954,135.127 433.527,133.364 435.027,132.274 436.881,132.274 438.381,133.364 438.954,135.127"/>
   <polyline stroke="#0071bc" stroke-linecap="round" fill="none" stroke-width="0.5" stroke-linejoin="round" points="437.205,133.911 436.632,135.675 435.132,136.765 433.278,136.765 431.778,135.675 431.205,133.911 431.778,132.148 433.278,131.058 435.132,131.058 436.632,132.148 437.205,133.911"/>
   <polyline stroke="#0071bc" stroke-linecap="round" fill="none" stroke-width="0.5" stroke-linejoin="round" points="435.434,132.726 434.861,134.489 433.361,135.579 431.507,135.579 430.007,134.489 429.434,132.726 430.007,130.962 431.507,129.873 433.361,129.873 434.861,130.962 435.434,132.726"/>
   <polyline stroke="#0071bc" stroke-linecap="round" fill="none" stroke-width="0.5" stroke-linejoin="round" points="433.641,131.57 433.068,133.333 431.568,134.423 429.714,134.423 428.214,133.333 427.641,131.57 428.214,129.807 429.714,128.717 431.568,128.717 433.068,129.807 433.641,131.57"/>
   <polyline stroke="#0071bc" stroke-linecap="round" fill="none" stroke-width="0.5" stroke-linejoin="round" points="431.826,130.443 431.253,132.207 429.753,133.296 427.898,133.296 426.398,132.207 425.826,130.443 426.398,128.68 427.898,127.59 429.753,127.59 431.253,128.68 431.826,130.443"/>
   <polyline stroke="#0071bc" stroke-linecap="round" fill="none" stroke-width="0.5" stroke-linejoin="round" points="429.989,129.344 429.416,131.107 427.916,132.197 426.062,132.197 424.562,131.107 423.989,129.344 424.562,127.581 426.062,126.491 427.916,126.491 429.416,127.581 429.989,129.344"/>
   <polyline stroke="#0071bc" stroke-linecap="round" fill="none" stroke-width="0.5" stroke-linejoin="round" points="428.13,128.272 427.557,130.035 426.057,131.125 424.203,131.125 422.703,130.035 422.13,128.272 422.703,126.508 424.203,125.418 426.057,125.418 427.557,126.508 428.13,128.272"/>
   <polyline stroke="#0071bc" stroke-linecap="round" fill="none" stroke-width="0.5" stroke-linejoin="round" points="426.25,127.226 425.677,128.989 424.177,130.079 422.323,130.079 420.823,128.989 420.25,127.226 420.823,125.462 422.323,124.373 424.177,124.373 425.677,125.462 426.25,127.226"/>
   <polyline stroke="#0071bc" stroke-linecap="round" fill="none" stroke-width="0.5" stroke-linejoin="round" points="424.348,126.205 423.775,127.968 422.275,129.058 420.421,129.058 418.921,127.968 418.348,126.205 418.921,124.441 420.421,123.352 422.275,123.352 423.775,124.441 424.348,126.205"/>
   <polyline stroke="#0071bc" stroke-linecap="round" fill="none" stroke-width="0.5" stroke-linejoin="round" points="422.425,125.208 421.852,126.972 420.352,128.062 418.498,128.062 416.998,126.972 416.425,125.208 416.998,123.445 418.498,122.355 420.352,122.355 421.852,123.445 422.425,125.208"/>
   <polyline stroke="#0071bc" stroke-linecap="round" fill="none" stroke-width="0.5" stroke-linejoin="round" points="420.48,124.236 419.908,126 418.408,127.089 416.554,127.089 415.054,126 414.48,124.236 415.054,122.473 416.554,121.383 418.408,121.383 419.908,122.473 420.48,124.236"/>
   <polyline stroke="#0071bc" stroke-linecap="round" fill="none" stroke-width="0.5" stroke-linejoin="round" points="418.515,123.287 417.942,125.05 416.442,126.14 414.588,126.14 413.088,125.05 412.515,123.287 413.088,121.523 414.588,120.434 416.442,120.434 417.942,121.523 418.515,123.287"/>
   <polyline stroke="#0071bc" stroke-linecap="round" fill="none" stroke-width="0.5" stroke-linejoin="round" points="416.529,122.36 415.956,124.124 414.456,125.213 412.602,125.213 411.102,124.124 410.529,122.36 411.102,120.597 412.602,119.507 414.456,119.507 415.956,120.597 416.529,122.36"/>
   <polyline stroke="#0071bc" stroke-linecap="round" fill="none" stroke-width="0.5" stroke-linejoin="round" points="414.521,121.456 413.948,123.219 412.448,124.309 410.594,124.309 409.094,123.219 408.521,121.456 409.094,119.692 410.594,118.602 412.448,118.602 413.948,119.692 414.521,121.456"/>
   <polyline stroke="#0071bc" stroke-linecap="round" fill="none" stroke-width="0.5" stroke-linejoin="round" points="412.493,120.572 411.92,122.335 410.42,123.425 408.566,123.425 407.066,122.335 406.493,120.572 407.066,118.809 408.566,117.719 410.42,117.719 411.92,118.809 412.493,120.572"/>
   <polyline stroke="#0071bc" stroke-linecap="round" fill="none" stroke-width="0.5" stroke-linejoin="round" points="410.444,119.709 409.871,121.472 408.371,122.562 406.517,122.562 405.017,121.472 404.444,119.709 405.017,117.945 406.517,116.855 408.371,116.855 409.871,117.945 410.444,119.709"/>
   <polyline stroke="#0071bc" stroke-linecap="round" fill="none" stroke-width="0.5" stroke-linejoin="round" points="408.375,118.866 407.802,120.629 406.302,121.719 404.448,121.719 402.948,120.629 402.375,118.866 402.948,117.103 404.448,116.013 406.302,116.013 407.802,117.103 408.375,118.866"/>
   <polyline stroke="#0071bc" stroke-linecap="round" fill="none" stroke-width="0.5" stroke-linejoin="round" points="406.285,118.042 405.712,119.806 404.212,120.896 402.358,120.896 400.858,119.806 400.285,118.042 400.858,116.279 402.358,115.189 404.212,115.189 405.712,116.279 406.285,118.042"/>
   <polyline stroke="#0071bc" stroke-linecap="round" fill="none" stroke-width="0.5" stroke-linejoin="round" points="404.175,117.238 403.602,119.001 402.102,120.091 400.248,120.091 398.748,119.001 398.175,117.238 398.748,115.475 400.248,114.385 402.102,114.385 403.602,115.475 404.175,117.238"/>
   <polyline stroke="#0071bc" stroke-linecap="round" fill="none" stroke-width="0.5" stroke-linejoin="round" points="402.045,116.452 401.472,118.215 399.972,119.305 398.118,119.305 396.618,118.215 396.045,116.452 396.618,114.688 398.118,113.599 399.972,113.599 401.472,114.688 402.045,116.452"/>
   <polyline stroke="#0071bc" stroke-linecap="round" fill="none" stroke-width="0.5" stroke-linejoin="round" points="399.895,115.684 399.322,117.447 397.822,118.537 395.968,118.537 394.468,117.447 393.895,115.684 394.468,113.921 395.968,112.831 397.822,112.831 399.322,113.921 399.895,115.684"/>
   <polyline stroke="#0071bc" stroke-linecap="round" fill="none" stroke-width="0.5" stroke-linejoin="round" points="397.725,114.934 397.152,116.697 395.652,117.787 393.798,117.787 392.298,116.697 391.725,114.934 392.298,113.17 393.798,112.081 395.652,112.081 397.152,113.17 397.725,114.934"/>
   <polyline stroke="#0071bc" stroke-linecap="round" fill="none" stroke-width="0.5" stroke-linejoin="round" points="395.535,114.2 394.962,115.964 393.462,117.054 391.608,117.054 390.108,115.964 389.535,114.2 390.108,112.437 391.608,111.347 393.462,111.347 394.962,112.437 395.535,114.2"/>
   <polyline stroke="#0071bc" stroke-linecap="round" fill="none" stroke-width="0.5" stroke-linejoin="round" points="393.326,113.484 392.753,115.247 391.253,116.337 389.399,116.337 387.899,115.247 387.326,113.484 387.899,111.72 389.399,110.63 391.253,110.63 392.753,111.72 393.326,113.484"/>
   <polyline stroke="#0071bc" stroke-linecap="round" fill="none" stroke-width="0.5" stroke-linejoin="round" points="391.097,112.783 390.524,114.547 389.024,115.636 387.17,115.636 385.67,114.547 385.097,112.783 385.67,111.02 387.17,109.93 389.024,109.93 390.524,111.02 391.097,112.783"/>
   <polyline stroke="#0071bc" stroke-linecap="round" fill="none" stroke-width="0.5" stroke-linejoin="round" points="388.849,112.099 388.276,113.862 386.776,114.952 384.922,114.952 383.422,113.862 382.849,112.099 383.422,110.335 384.922,109.246 386.776,109.246 388.276,110.335 388.849,112.099"/>
   <polyline stroke="#0071bc" stroke-linecap="round" fill="none" stroke-width="0.5" stroke-linejoin="round" points="386.582,111.43 386.009,113.193 384.509,114.283 382.655,114.283 381.155,113.193 380.582,111.43 381.155,109.667 382.655,108.577 384.509,108.577 386.009,109.667 386.582,111.43"/>
   <polyline stroke="#0071bc" stroke-linecap="round" fill="none" stroke-width="0.5" stroke-linejoin="round" points="384.295,110.776 383.723,112.539 382.223,113.629 380.369,113.629 378.869,112.539 378.295,110.776 378.869,109.013 380.369,107.923 382.223,107.923 383.723,109.013 384.295,110.776"/>
   <polyline stroke="#0071bc" stroke-linecap="round" fill="none" stroke-width="0.5" stroke-linejoin="round" points="381.99,110.137 381.417,111.9 379.917,112.99 378.063,112.99 376.563,111.9 375.99,110.137 376.563,108.374 378.063,107.284 379.917,107.284 381.417,108.374 381.99,110.137"/>
   <polyline stroke="#0071bc" stroke-linecap="round" fill="none" stroke-width="0.5" stroke-linejoin="round" points="379.667,109.512 379.094,111.276 377.594,112.366 375.739,112.366 374.239,111.276 373.667,109.512 374.239,107.749 375.739,106.659 377.594,106.659 379.094,107.749 379.667,109.512"/>
   <polyline stroke="#0071bc" stroke-linecap="round" fill="none" stroke-width="0.5" stroke-linejoin="round" points="377.324,108.902 376.751,110.666 375.251,111.755 373.397,111.755 371.897,110.666 371.324,108.902 371.897,107.139 373.397,106.049 375.251,106.049 376.751,107.139 377.324,108.902"/>
   <polyline stroke="#0071bc" stroke-linecap="round" fill="none" stroke-width="0.5" stroke-linejoin="round" points="374.963,108.306 374.39,110.069 372.89,111.159 371.036,111.159 369.536,110.069 368.963,108.306 369.536,106.542 371.036,105.453 372.89,105.453 374.39,106.542 374.963,108.306"/>
   <polyline stroke="#0071bc" stroke-linecap="round" fill="none" stroke-width="0.5" stroke-linejoin="round" points="372.583,107.723 372.011,109.486 370.511,110.576 368.656,110.576 367.156,109.486 366.583,107.723 367.156,105.959 368.656,104.87 370.511,104.87 372.011,105.959 372.583,107.723"/>
   <polyline stroke="#0071bc" stroke-linecap="round" fill="none" stroke-width="0.5" stroke-linejoin="round" points="370.186,107.153 369.613,108.917 368.113,110.006 366.259,110.006 364.759,108.917 364.186,107.153 364.759,105.39 366.259,104.3 368.113,104.3 369.613,105.39 370.186,107.153"/>
   <polyline stroke="#0071bc" stroke-linecap="round" fill="none" stroke-width="0.5" stroke-linejoin="round" points="367.771,106.597 367.197,108.36 365.697,109.45 363.843,109.45 362.343,108.36 361.771,106.597 362.343,104.833 363.843,103.744 365.697,103.744 367.197,104.833 367.771,106.597"/>
   <polyline stroke="#0071bc" stroke-linecap="round" fill="none" stroke-width="0.5" stroke-linejoin="round" points="365.337,106.054 364.764,107.817 363.264,108.907 361.41,108.907 359.91,107.817 359.337,106.054 359.91,104.29 361.41,103.2 363.264,103.2 364.764,104.29 365.337,106.054"/>
   <polyline stroke="#0071bc" stroke-linecap="round" fill="none" stroke-width="0.5" stroke-linejoin="round" points="362.886,105.522 362.313,107.286 360.813,108.376 358.958,108.376 357.458,107.286 356.886,105.522 357.458,103.759 358.958,102.669 360.813,102.669 362.313,103.759 362.886,105.522"/>
   <polyline stroke="#0071bc" stroke-linecap="round" fill="none" stroke-width="0.5" stroke-linejoin="round" points="360.417,105.004 359.844,106.768 358.344,107.857 356.49,107.857 354.99,106.768 354.417,105.004 354.99,103.241 356.49,102.151 358.344,102.151 359.844,103.241 360.417,105.004"/>
   <polyline stroke="#0071bc" stroke-linecap="round" fill="none" stroke-width="0.5" stroke-linejoin="round" points="357.931,104.498 357.358,106.261 355.858,107.351 354.004,107.351 352.504,106.261 351.931,104.498 352.504,102.735 354.004,101.645 355.858,101.645 357.358,102.735 357.931,104.498"/>
   <polyline stroke="#0071bc" stroke-linecap="round" fill="none" stroke-width="0.5" stroke-linejoin="round" points="355.427,104.004 354.854,105.767 353.354,106.857 351.5,106.857 350,105.767 349.427,104.004 350,102.24 351.5,101.15 353.354,101.15 354.854,102.24 355.427,104.004"/>
   <polyline stroke="#0071bc" stroke-linecap="round" fill="none" stroke-width="0.5" stroke-linejoin="round" points="352.907,103.521 352.334,105.285 350.834,106.375 348.979,106.375 347.479,105.285 346.907,103.521 347.479,101.758 348.979,100.668 350.834,100.668 352.334,101.758 352.907,103.521"/>
   <polyline stroke="#0071bc" stroke-linecap="round" fill="none" stroke-width="0.5" stroke-linejoin="round" points="350.369,103.051 349.796,104.814 348.296,105.904 346.442,105.904 344.942,104.814 344.369,103.051 344.942,101.288 346.442,100.198 348.296,100.198 349.796,101.288 350.369,103.051"/>
   <polyline stroke="#0071bc" stroke-linecap="round" fill="none" stroke-width="0.5" stroke-linejoin="round" points="347.815,102.592 347.242,104.355 345.742,105.445 343.888,105.445 342.388,104.355 341.815,102.592 342.388,100.828 343.888,99.7383 345.742,99.7383 347.242,100.828 347.815,102.592"/>
   <polyline stroke="#0071bc" stroke-linecap="round" fill="none" stroke-width="0.5" stroke-linejoin="round" points="345.244,102.144 344.671,103.907 343.171,104.997 341.317,104.997 339.817,103.907 339.244,102.144 339.817,100.38 341.317,99.2905 343.171,99.2905 344.671,100.38 345.244,102.144"/>
   <polyline stroke="#0071bc" stroke-linecap="round" fill="none" stroke-width="0.5" stroke-linejoin="round" points="342.656,101.707 342.083,103.471 340.583,104.56 338.729,104.56 337.229,103.471 336.656,101.707 337.229,99.9438 338.729,98.854 340.583,98.854 342.083,99.9438 342.656,101.707"/>
   <polyline stroke="#0071bc" stroke-linecap="round" fill="none" stroke-width="0.5" stroke-linejoin="round" points="340.052,101.282 339.479,103.045 337.979,104.135 336.125,104.135 334.625,103.045 334.052,101.282 334.625,99.5181 336.125,98.4282 337.979,98.4282 339.479,99.5181 340.052,101.282"/>
   <polyline stroke="#0071bc" stroke-linecap="round" fill="none" stroke-width="0.5" stroke-linejoin="round" points="337.433,100.867 336.859,102.63 335.359,103.72 333.505,103.72 332.005,102.63 331.433,100.867 332.005,99.1035 333.505,98.0137 335.359,98.0137 336.859,99.1035 337.433,100.867"/>
   <polyline stroke="#0071bc" stroke-linecap="round" fill="none" stroke-width="0.5" stroke-linejoin="round" points="334.796,100.463 334.224,102.227 332.724,103.316 330.869,103.316 329.369,102.227 328.796,100.463 329.369,98.7002 330.869,97.6104 332.724,97.6104 334.224,98.7002 334.796,100.463"/>
   <polyline stroke="#0071bc" stroke-linecap="round" fill="none" stroke-width="0.5" stroke-linejoin="round" points="332.145,100.07 331.572,101.834 330.072,102.924 328.217,102.924 326.717,101.834 326.145,100.07 326.717,98.3071 328.217,97.2173 330.072,97.2173 331.572,98.3071 332.145,100.07"/>
   <polyline stroke="#0071bc" stroke-linecap="round" fill="none" stroke-width="0.5" stroke-linejoin="round" points="329.477,99.688 328.904,101.452 327.404,102.542 325.55,102.542 324.05,101.452 323.477,99.688 324.05,97.9248 325.55,96.835 327.404,96.835 328.904,97.9248 329.477,99.688"/>
   <polyline stroke="#0071bc" stroke-linecap="round" fill="none" stroke-width="0.5" stroke-linejoin="round" points="326.794,99.3164 326.221,101.08 324.721,102.169 322.867,102.169 321.367,101.08 320.794,99.3164 321.367,97.5532 322.867,96.4634 324.721,96.4634 326.221,97.5532 326.794,99.3164"/>
   <polyline stroke="#0071bc" stroke-linecap="round" fill="none" stroke-width="0.5" stroke-linejoin="round" points="324.096,98.9551 323.522,100.719 322.022,101.808 320.168,101.808 318.668,100.719 318.096,98.9551 318.668,97.1919 320.168,96.1021 322.022,96.1021 323.522,97.1919 324.096,98.9551"/>
   <polyline stroke="#0071bc" stroke-linecap="round" fill="none" stroke-width="0.5" stroke-linejoin="round" points="321.382,98.6045 320.809,100.368 319.309,101.458 317.455,101.458 315.955,100.368 315.382,98.6045 315.955,96.8408 317.455,95.751 319.309,95.751 320.809,96.8408 321.382,98.6045"/>
   <polyline stroke="#0071bc" stroke-linecap="round" fill="none" stroke-width="0.5" stroke-linejoin="round" points="318.653,98.2637 318.08,100.027 316.58,101.117 314.726,101.117 313.226,100.027 312.653,98.2637 313.226,96.5005 314.726,95.4106 316.58,95.4106 318.08,96.5005 318.653,98.2637"/>
   <polyline stroke="#0071bc" stroke-linecap="round" fill="none" stroke-width="0.5" stroke-linejoin="round" points="315.91,97.9336 315.337,99.6973 313.837,100.787 311.983,100.787 310.483,99.6973 309.91,97.9336 310.483,96.1704 311.983,95.0806 313.837,95.0806 315.337,96.1704 315.91,97.9336"/>
   <polyline stroke="#0071bc" stroke-linecap="round" fill="none" stroke-width="0.5" stroke-linejoin="round" points="313.151,97.6138 312.579,99.377 311.079,100.467 309.225,100.467 307.725,99.377 307.151,97.6138 307.725,95.8506 309.225,94.7607 311.079,94.7607 312.579,95.8506 313.151,97.6138"/>
   <polyline stroke="#0071bc" stroke-linecap="round" fill="none" stroke-width="0.5" stroke-linejoin="round" points="310.379,97.3042 309.806,99.0674 308.306,100.157 306.452,100.157 304.952,99.0674 304.379,97.3042 304.952,95.5405 306.452,94.4507 308.306,94.4507 309.806,95.5405 310.379,97.3042"/>
   <polyline stroke="#0071bc" stroke-linecap="round" fill="none" stroke-width="0.5" stroke-linejoin="round" points="307.592,97.0044 307.019,98.7681 305.519,99.8579 303.665,99.8579 302.165,98.7681 301.592,97.0044 302.165,95.2412 303.665,94.1514 305.519,94.1514 307.019,95.2412 307.592,97.0044"/>
   <polyline stroke="#0071bc" stroke-linecap="round" fill="none" stroke-width="0.5" stroke-linejoin="round" points="304.791,96.7153 304.218,98.4785 302.718,99.5684 300.864,99.5684 299.364,98.4785 298.791,96.7153 299.364,94.9517 300.864,93.8618 302.718,93.8618 304.218,94.9517 304.791,96.7153"/>
   <polyline stroke="#0071bc" stroke-linecap="round" fill="none" stroke-width="0.5" stroke-linejoin="round" points="301.976,96.436 301.402,98.1992 299.902,99.2891 298.048,99.2891 296.548,98.1992 295.976,96.436 296.548,94.6724 298.048,93.583 299.902,93.583 301.402,94.6724 301.976,96.436"/>
   <polyline stroke="#0071bc" stroke-linecap="round" fill="none" stroke-width="0.5" stroke-linejoin="round" points="299.146,96.167 298.574,97.9302 297.074,99.02 295.219,99.02 293.719,97.9302 293.146,96.167 293.719,94.4033 295.219,93.3135 297.074,93.3135 298.574,94.4033 299.146,96.167"/>
   <polyline stroke="#0071bc" stroke-linecap="round" fill="none" stroke-width="0.5" stroke-linejoin="round" points="296.304,95.9077 295.731,97.6714 294.231,98.7612 292.377,98.7612 290.877,97.6714 290.304,95.9077 290.877,94.1445 292.377,93.0547 294.231,93.0547 295.731,94.1445 296.304,95.9077"/>
   <polyline stroke="#0071bc" stroke-linecap="round" fill="none" stroke-width="0.5" stroke-linejoin="round" points="293.448,95.6592 292.875,97.4224 291.375,98.5122 289.521,98.5122 288.021,97.4224 287.448,95.6592 288.021,93.8955 289.521,92.8057 291.375,92.8057 292.875,93.8955 293.448,95.6592"/>
   <polyline stroke="#0071bc" stroke-linecap="round" fill="none" stroke-width="0.5" stroke-linejoin="round" points="290.578,95.4204 290.005,97.1836 288.505,98.2734 286.651,98.2734 285.151,97.1836 284.578,95.4204 285.151,93.6567 286.651,92.5669 288.505,92.5669 290.005,93.6567 290.578,95.4204"/>
   <polyline stroke="#0071bc" stroke-linecap="round" fill="none" stroke-width="0.5" stroke-linejoin="round" points="287.696,95.1919 287.123,96.9551 285.623,98.0449 283.769,98.0449 282.269,96.9551 281.696,95.1919 282.269,93.4282 283.769,92.3384 285.623,92.3384 287.123,93.4282 287.696,95.1919"/>
   <polyline stroke="#0071bc" stroke-linecap="round" fill="none" stroke-width="0.5" stroke-linejoin="round" points="284.8,94.9731 284.227,96.7368 282.727,97.8267 280.873,97.8267 279.373,96.7368 278.8,94.9731 279.373,93.21 280.873,92.1201 282.727,92.1201 284.227,93.21 284.8,94.9731"/>
   <polyline stroke="#0071bc" stroke-linecap="round" fill="none" stroke-width="0.5" stroke-linejoin="round" points="281.892,94.7651 281.319,96.5283 279.819,97.6182 277.965,97.6182 276.465,96.5283 275.892,94.7651 276.465,93.002 277.965,91.9121 279.819,91.9121 281.319,93.002 281.892,94.7651"/>
   <polyline stroke="#0071bc" stroke-linecap="round" fill="none" stroke-width="0.5" stroke-linejoin="round" points="278.971,94.5674 278.398,96.3306 276.898,97.4204 275.044,97.4204 273.544,96.3306 272.971,94.5674 273.544,92.8037 275.044,91.7144 276.898,91.7144 278.398,92.8037 278.971,94.5674"/>
   <polyline stroke="#0071bc" stroke-linecap="round" fill="none" stroke-width="0.5" stroke-linejoin="round" points="276.038,94.3799 275.465,96.1431 273.965,97.2329 272.111,97.2329 270.611,96.1431 270.038,94.3799 270.611,92.6162 272.111,91.5264 273.965,91.5264 275.465,92.6162 276.038,94.3799"/>
   <polyline stroke="#0071bc" stroke-linecap="round" fill="none" stroke-width="0.5" stroke-linejoin="round" points="273.092,94.2026 272.52,95.9658 271.02,97.0557 269.166,97.0557 267.666,95.9658 267.092,94.2026 267.666,92.439 269.166,91.3491 271.02,91.3491 272.52,92.439 273.092,94.2026"/>
   <polyline stroke="#0071bc" stroke-linecap="round" fill="none" stroke-width="0.5" stroke-linejoin="round" points="270.135,94.0356 269.562,95.7988 268.062,96.8887 266.208,96.8887 264.708,95.7988 264.135,94.0356 264.708,92.2725 266.208,91.1826 268.062,91.1826 269.562,92.2725 270.135,94.0356"/>
   <polyline stroke="#0071bc" stroke-linecap="round" fill="none" stroke-width="0.5" stroke-linejoin="round" points="267.166,93.8794 266.592,95.6426 265.092,96.7324 263.238,96.7324 261.738,95.6426 261.166,93.8794 261.738,92.1157 263.238,91.0264 265.092,91.0264 266.592,92.1157 267.166,93.8794"/>
   <polyline stroke="#0071bc" stroke-linecap="round" fill="none" stroke-width="0.5" stroke-linejoin="round" points="264.185,93.7334 263.611,95.4971 262.111,96.5869 260.257,96.5869 258.757,95.4971 258.185,93.7334 258.757,91.9702 260.257,90.8804 262.111,90.8804 263.611,91.9702 264.185,93.7334"/>
   <polyline stroke="#0071bc" stroke-linecap="round" fill="none" stroke-width="0.5" stroke-linejoin="round" points="261.192,93.5986 260.619,95.3618 259.119,96.4517 257.265,96.4517 255.765,95.3618 255.192,93.5986 255.765,91.835 257.265,90.7451 259.119,90.7451 260.619,91.835 261.192,93.5986"/>
   <polyline stroke="#0071bc" stroke-linecap="round" fill="none" stroke-width="0.5" stroke-linejoin="round" points="258.188,93.4741 257.615,95.2373 256.115,96.3271 254.261,96.3271 252.761,95.2373 252.188,93.4741 252.761,91.7104 254.261,90.6206 256.115,90.6206 257.615,91.7104 258.188,93.4741"/>
   <polyline stroke="#0071bc" stroke-linecap="round" fill="none" stroke-width="0.5" stroke-linejoin="round" points="255.173,93.3604 254.6,95.124 253.1,96.2139 251.246,96.2139 249.746,95.124 249.173,93.3604 249.746,91.5972 251.246,90.5073 253.1,90.5073 254.6,91.5972 255.173,93.3604"/>
   <polyline stroke="#0071bc" stroke-linecap="round" fill="none" stroke-width="0.5" stroke-linejoin="round" points="252.147,93.2578 251.574,95.021 250.074,96.1108 248.22,96.1108 246.72,95.021 246.147,93.2578 246.72,91.4946 248.22,90.4048 250.074,90.4048 251.574,91.4946 252.147,93.2578"/>
   <polyline stroke="#0071bc" stroke-linecap="round" fill="none" stroke-width="0.5" stroke-linejoin="round" points="249.11,93.1665 248.538,94.9297 247.038,96.0195 245.184,96.0195 243.684,94.9297 243.11,93.1665 243.684,91.4028 245.184,90.313 247.038,90.313 248.538,91.4028 249.11,93.1665"/>
   <polyline stroke="#0071bc" stroke-linecap="round" fill="none" stroke-width="0.5" stroke-linejoin="round" points="246.063,93.0859 245.49,94.8496 243.99,95.939 242.136,95.939 240.636,94.8496 240.063,93.0859 240.636,91.3228 242.136,90.2329 243.99,90.2329 245.49,91.3228 246.063,93.0859"/>
   <polyline stroke="#0071bc" stroke-linecap="round" fill="none" stroke-width="0.5" stroke-linejoin="round" points="243.006,93.0171 242.433,94.7803 240.933,95.8701 239.079,95.8701 237.579,94.7803 237.006,93.0171 237.579,91.2534 239.079,90.1636 240.933,90.1636 242.433,91.2534 243.006,93.0171"/>
   <polyline stroke="#0071bc" stroke-linecap="round" fill="none" stroke-width="0.5" stroke-linejoin="round" points="239.938,92.9595 239.365,94.7227 237.865,95.8125 236.011,95.8125 234.511,94.7227 233.938,92.9595 234.511,91.1963 236.011,90.1064 237.865,90.1064 239.365,91.1963 239.938,92.9595"/>
   <polyline stroke="#0071bc" stroke-linecap="round" fill="none" stroke-width="0.5" stroke-linejoin="round" points="236.86,92.9136 236.287,94.6768 234.787,95.7666 232.933,95.7666 231.433,94.6768 230.86,92.9136 231.433,91.1499 232.933,90.0605 234.787,90.0605 236.287,91.1499 236.86,92.9136"/>
   <polyline stroke="#0071bc" stroke-linecap="round" fill="none" stroke-width="0.5" stroke-linejoin="round" points="233.772,92.8794 233.2,94.6426 231.7,95.7324 229.845,95.7324 228.346,94.6426 227.772,92.8794 228.346,91.1157 229.845,90.0264 231.7,90.0264 233.2,91.1157 233.772,92.8794"/>
   <polyline stroke="#0071bc" stroke-linecap="round" fill="none" stroke-width="0.5" stroke-linejoin="round" points="230.675,92.8569 230.103,94.6206 228.603,95.7104 226.748,95.7104 225.248,94.6206 224.675,92.8569 225.248,91.0938 226.748,90.0039 228.603,90.0039 230.103,91.0938 230.675,92.8569"/>
   <polyline stroke="#0071bc" stroke-linecap="round" fill="none" stroke-width="0.5" stroke-linejoin="round" points="227.569,92.8472 226.996,94.6104 225.496,95.7002 223.642,95.7002 222.142,94.6104 221.569,92.8472 222.142,91.0835 223.642,89.9937 225.496,89.9937 226.996,91.0835 227.569,92.8472"/>
   <polyline stroke="#0071bc" stroke-linecap="round" fill="none" stroke-width="0.5" stroke-linejoin="round" points="224.453,92.8491 223.88,94.6128 222.38,95.7021 220.526,95.7021 219.026,94.6128 218.453,92.8491 219.026,91.0859 220.526,89.9961 222.38,89.9961 223.88,91.0859 224.453,92.8491"/>
   <polyline stroke="#0071bc" stroke-linecap="round" fill="none" stroke-width="0.5" stroke-linejoin="round" points="221.328,92.8638 220.755,94.6274 219.255,95.7173 217.401,95.7173 215.901,94.6274 215.328,92.8638 215.901,91.1006 217.401,90.0107 219.255,90.0107 220.755,91.1006 221.328,92.8638"/>
   <polyline stroke="#0071bc" stroke-linecap="round" fill="none" stroke-width="0.5" stroke-linejoin="round" points="218.194,92.8916 217.621,94.6548 216.121,95.7446 214.267,95.7446 212.767,94.6548 212.194,92.8916 212.767,91.1279 214.267,90.0381 216.121,90.0381 217.621,91.1279 218.194,92.8916"/>
   <polyline stroke="#0071bc" stroke-linecap="round" fill="none" stroke-width="0.5" stroke-linejoin="round" points="215.052,92.9316 214.479,94.6953 212.979,95.7852 211.125,95.7852 209.625,94.6953 209.052,92.9316 209.625,91.1685 211.125,90.0786 212.979,90.0786 214.479,91.1685 215.052,92.9316"/>
   <polyline stroke="#0071bc" stroke-linecap="round" fill="none" stroke-width="0.5" stroke-linejoin="round" points="211.901,92.9854 211.328,94.749 209.828,95.8389 207.974,95.8389 206.474,94.749 205.901,92.9854 206.474,91.2222 207.974,90.1323 209.828,90.1323 211.328,91.2222 211.901,92.9854"/>
   <polyline stroke="#0071bc" stroke-linecap="round" fill="none" stroke-width="0.5" stroke-linejoin="round" points="208.742,93.0527 208.169,94.8159 206.669,95.9058 204.815,95.9058 203.315,94.8159 202.742,93.0527 203.315,91.2891 204.815,90.1997 206.669,90.1997 208.169,91.2891 208.742,93.0527"/>
   <polyline stroke="#0071bc" stroke-linecap="round" fill="none" stroke-width="0.5" stroke-linejoin="round" points="205.575,93.1333 205.001,94.897 203.501,95.9868 201.647,95.9868 200.147,94.897 199.575,93.1333 200.147,91.3701 201.647,90.2803 203.501,90.2803 205.001,91.3701 205.575,93.1333"/>
   <polyline stroke="#0071bc" stroke-linecap="round" fill="none" stroke-width="0.5" stroke-linejoin="round" points="202.399,93.2285 201.827,94.9917 200.327,96.0815 198.473,96.0815 196.973,94.9917 196.399,93.2285 196.973,91.4648 198.473,90.375 200.327,90.375 201.827,91.4648 202.399,93.2285"/>
   <polyline stroke="#0071bc" stroke-linecap="round" fill="none" stroke-width="0.5" stroke-linejoin="round" points="199.217,93.3374 198.644,95.1006 197.144,96.1904 195.29,96.1904 193.79,95.1006 193.217,93.3374 193.79,91.5742 195.29,90.4844 197.144,90.4844 198.644,91.5742 199.217,93.3374"/>
   <polyline stroke="#0071bc" stroke-linecap="round" fill="none" stroke-width="0.5" stroke-linejoin="round" points="196.026,93.4609 195.454,95.2246 193.954,96.3145 192.1,96.3145 190.6,95.2246 190.026,93.4609 190.6,91.6978 192.1,90.6079 193.954,90.6079 195.454,91.6978 196.026,93.4609"/>
   <polyline stroke="#0071bc" stroke-linecap="round" fill="none" stroke-width="0.5" stroke-linejoin="round" points="192.829,93.5996 192.256,95.3633 190.756,96.4531 188.902,96.4531 187.402,95.3633 186.829,93.5996 187.402,91.8364 188.902,90.7466 190.756,90.7466 192.256,91.8364 192.829,93.5996"/>
   <polyline stroke="#0071bc" stroke-linecap="round" fill="none" stroke-width="0.5" stroke-linejoin="round" points="189.625,93.7539 189.051,95.5171 187.551,96.6069 185.697,96.6069 184.197,95.5171 183.625,93.7539 184.197,91.9902 185.697,90.9004 187.551,90.9004 189.051,91.9902 189.625,93.7539"/>
   <polyline stroke="#0071bc" stroke-linecap="round" fill="none" stroke-width="0.5" stroke-linejoin="round" points="186.413,93.9233 185.84,95.6865 184.34,96.7764 182.486,96.7764 180.986,95.6865 180.413,93.9233 180.986,92.1602 182.486,91.0703 184.34,91.0703 185.84,92.1602 186.413,93.9233"/>
   <polyline stroke="#0071bc" stroke-linecap="round" fill="none" stroke-width="0.5" stroke-linejoin="round" points="183.195,94.1089 182.622,95.8726 181.122,96.9624 179.268,96.9624 177.768,95.8726 177.195,94.1089 177.768,92.3457 179.268,91.2559 181.122,91.2559 182.622,92.3457 183.195,94.1089"/>
   <polyline stroke="#0071bc" stroke-linecap="round" fill="none" stroke-width="0.5" stroke-linejoin="round" points="179.97,94.311 179.397,96.0747 177.897,97.1646 176.043,97.1646 174.543,96.0747 173.97,94.311 174.543,92.5479 176.043,91.458 177.897,91.458 179.397,92.5479 179.97,94.311"/>
   <polyline stroke="#0071bc" stroke-linecap="round" fill="none" stroke-width="0.5" stroke-linejoin="round" points="176.739,94.5303 176.166,96.2935 174.666,97.3833 172.812,97.3833 171.312,96.2935 170.739,94.5303 171.312,92.7671 172.812,91.6772 174.666,91.6772 176.166,92.7671 176.739,94.5303"/>
   <polyline stroke="#0071bc" stroke-linecap="round" fill="none" stroke-width="0.5" stroke-linejoin="round" points="173.502,94.7666 172.929,96.5303 171.429,97.6196 169.575,97.6196 168.075,96.5303 167.502,94.7666 168.075,93.0034 169.575,91.9136 171.429,91.9136 172.929,93.0034 173.502,94.7666"/>
   <polyline stroke="#0071bc" stroke-linecap="round" fill="none" stroke-width="0.5" stroke-linejoin="round" points="170.259,95.021 169.686,96.7842 168.186,97.874 166.332,97.874 164.832,96.7842 164.259,95.021 164.832,93.2578 166.332,92.168 168.186,92.168 169.686,93.2578 170.259,95.021"/>
   <polyline stroke="#0071bc" stroke-linecap="round" fill="none" stroke-width="0.5" stroke-linejoin="round" points="167.01,95.2935 166.437,97.0571 164.937,98.147 163.083,98.147 161.583,97.0571 161.01,95.2935 161.583,93.5303 163.083,92.4404 164.937,92.4404 166.437,93.5303 167.01,95.2935"/>
   <polyline stroke="#0071bc" stroke-linecap="round" fill="none" stroke-width="0.5" stroke-linejoin="round" points="163.756,95.5854 163.183,97.3486 161.683,98.4385 159.829,98.4385 158.329,97.3486 157.756,95.5854 158.329,93.8218 159.829,92.7319 161.683,92.7319 163.183,93.8218 163.756,95.5854"/>
   <polyline stroke="#0071bc" stroke-linecap="round" fill="none" stroke-width="0.5" stroke-linejoin="round" points="160.497,95.8965 159.923,97.6597 158.423,98.7495 156.569,98.7495 155.069,97.6597 154.497,95.8965 155.069,94.1333 156.569,93.0435 158.423,93.0435 159.923,94.1333 160.497,95.8965"/>
   <polyline stroke="#0071bc" stroke-linecap="round" fill="none" stroke-width="0.5" stroke-linejoin="round" points="157.232,96.2275 156.659,97.9912 155.159,99.0811 153.305,99.0811 151.805,97.9912 151.232,96.2275 151.805,94.4644 153.305,93.3745 155.159,93.3745 156.659,94.4644 157.232,96.2275"/>
   <polyline stroke="#0071bc" stroke-linecap="round" fill="none" stroke-width="0.5" stroke-linejoin="round" points="153.962,96.5801 153.389,98.3433 151.889,99.4331 150.035,99.4331 148.535,98.3433 147.962,96.5801 148.535,94.8164 150.035,93.7266 151.889,93.7266 153.389,94.8164 153.962,96.5801"/>
   <polyline stroke="#0071bc" stroke-linecap="round" fill="none" stroke-width="0.5" stroke-linejoin="round" points="150.688,96.9536 150.115,98.7168 148.615,99.8066 146.761,99.8066 145.261,98.7168 144.688,96.9536 145.261,95.1904 146.761,94.1006 148.615,94.1006 150.115,95.1904 150.688,96.9536"/>
   <polyline stroke="#0071bc" stroke-linecap="round" fill="none" stroke-width="0.5" stroke-linejoin="round" points="147.41,97.3496 146.836,99.1133 145.336,100.203 143.482,100.203 141.982,99.1133 141.41,97.3496 141.982,95.5864 143.482,94.4966 145.336,94.4966 146.836,95.5864 147.41,97.3496"/>
   <polyline stroke="#0071bc" stroke-linecap="round" fill="none" stroke-width="0.5" stroke-linejoin="round" points="144.126,97.769 143.554,99.5322 142.054,100.622 140.199,100.622 138.699,99.5322 138.126,97.769 138.699,96.0059 140.199,94.916 142.054,94.916 143.554,96.0059 144.126,97.769"/>
   <polyline stroke="#0071bc" stroke-linecap="round" fill="none" stroke-width="0.5" stroke-linejoin="round" points="140.839,98.2124 140.267,99.9756 138.767,101.065 136.913,101.065 135.413,99.9756 134.839,98.2124 135.413,96.4492 136.913,95.3594 138.767,95.3594 140.267,96.4492 140.839,98.2124"/>
   <polyline stroke="#0071bc" stroke-linecap="round" fill="none" stroke-width="0.5" stroke-linejoin="round" points="137.548,98.6807 136.976,100.444 135.476,101.534 133.622,101.534 132.122,100.444 131.548,98.6807 132.122,96.9175 133.622,95.8276 135.476,95.8276 136.976,96.9175 137.548,98.6807"/>
   <polyline stroke="#0071bc" stroke-linecap="round" fill="none" stroke-width="0.5" stroke-linejoin="round" points="134.254,99.1753 133.681,100.938 132.181,102.028 130.327,102.028 128.827,100.938 128.254,99.1753 128.827,97.4121 130.327,96.3223 132.181,96.3223 133.681,97.4121 134.254,99.1753"/>
   <polyline stroke="#0071bc" stroke-linecap="round" fill="none" stroke-width="0.5" stroke-linejoin="round" points="130.956,99.6973 130.383,101.46 128.883,102.55 127.029,102.55 125.529,101.46 124.956,99.6973 125.529,97.9336 127.029,96.8438 128.883,96.8438 130.383,97.9336 130.956,99.6973"/>
   <polyline stroke="#0071bc" stroke-linecap="round" fill="none" stroke-width="0.5" stroke-linejoin="round" points="127.654,100.248 127.082,102.011 125.582,103.101 123.728,103.101 122.228,102.011 121.654,100.248 122.228,98.4839 123.728,97.394 125.582,97.394 127.082,98.4839 127.654,100.248"/>
   <polyline stroke="#0071bc" stroke-linecap="round" fill="none" stroke-width="0.5" stroke-linejoin="round" points="124.35,100.828 123.777,102.591 122.277,103.681 120.423,103.681 118.923,102.591 118.35,100.828 118.923,99.0645 120.423,97.9746 122.277,97.9746 123.777,99.0645 124.35,100.828"/>
   <polyline stroke="#0071bc" stroke-linecap="round" fill="none" stroke-width="0.5" stroke-linejoin="round" points="121.043,101.439 120.47,103.203 118.97,104.292 117.116,104.292 115.616,103.203 115.043,101.439 115.616,99.6758 117.116,98.5859 118.97,98.5859 120.47,99.6758 121.043,101.439"/>
   <polyline stroke="#0071bc" stroke-linecap="round" fill="none" stroke-width="0.5" stroke-linejoin="round" points="117.733,102.084 117.16,103.847 115.66,104.937 113.806,104.937 112.306,103.847 111.733,102.084 112.306,100.32 113.806,99.231 115.66,99.231 117.16,100.32 117.733,102.084"/>
   <polyline stroke="#0071bc" stroke-linecap="round" fill="none" stroke-width="0.5" stroke-linejoin="round" points="114.42,102.764 113.848,104.527 112.348,105.617 110.493,105.617 108.993,104.527 108.42,102.764 108.993,101 110.493,99.9102 112.348,99.9102 113.848,101 114.42,102.764"/>
   <polyline stroke="#0071bc" stroke-linecap="round" fill="none" stroke-width="0.5" stroke-linejoin="round" points="111.105,103.48 110.533,105.244 109.033,106.333 107.179,106.333 105.679,105.244 105.105,103.48 105.679,101.717 107.179,100.627 109.033,100.627 110.533,101.717 111.105,103.48"/>
   <polyline stroke="#0071bc" stroke-linecap="round" fill="none" stroke-width="0.5" stroke-linejoin="round" points="107.789,104.236 107.216,106 105.716,107.09 103.862,107.09 102.362,106 101.789,104.236 102.362,102.473 103.862,101.383 105.716,101.383 107.216,102.473 107.789,104.236"/>
   <polyline stroke="#0071bc" stroke-linecap="round" fill="none" stroke-width="0.5" stroke-linejoin="round" points="104.47,105.035 103.897,106.798 102.397,107.888 100.543,107.888 99.0435,106.798 98.4702,105.035 99.0435,103.271 100.543,102.182 102.397,102.182 103.897,103.271 104.47,105.035"/>
   <polyline stroke="#0071bc" stroke-linecap="round" fill="none" stroke-width="0.5" stroke-linejoin="round" points="101.15,105.878 100.577,107.642 99.0771,108.731 97.2231,108.731 95.7231,107.642 95.1504,105.878 95.7231,104.115 97.2231,103.025 99.0771,103.025 100.577,104.115 101.15,105.878"/>
   <polyline stroke="#0071bc" stroke-linecap="round" fill="none" stroke-width="0.5" stroke-linejoin="round" points="97.8286,106.771 97.2554,108.535 95.7554,109.625 93.9014,109.625 92.4014,108.535 91.8286,106.771 92.4014,105.008 93.9014,103.918 95.7554,103.918 97.2554,105.008 97.8286,106.771"/>
   <polyline stroke="#0071bc" stroke-linecap="round" fill="none" stroke-width="0.5" stroke-linejoin="round" points="94.5059,107.718 93.9326,109.481 92.4326,110.571 90.5786,110.571 89.0786,109.481 88.5059,107.718 89.0786,105.955 90.5786,104.865 92.4326,104.865 93.9326,105.955 94.5059,107.718"/>
   <polyline stroke="#0071bc" stroke-linecap="round" fill="none" stroke-width="0.5" stroke-linejoin="round" points="91.1816,108.723 90.6089,110.487 89.1089,111.577 87.2549,111.577 85.7549,110.487 85.1816,108.723 85.7549,106.96 87.2549,105.87 89.1089,105.87 90.6089,106.96 91.1816,108.723"/>
   <polyline stroke="#0071bc" stroke-linecap="round" fill="none" stroke-width="0.5" stroke-linejoin="round" points="87.8569,109.795 87.2842,111.558 85.7842,112.648 83.9302,112.648 82.4302,111.558 81.8569,109.795 82.4302,108.032 83.9302,106.942 85.7842,106.942 87.2842,108.032 87.8569,109.795"/>
   <polyline stroke="#0071bc" stroke-linecap="round" fill="none" stroke-width="0.5" stroke-linejoin="round" points="84.5317,110.943 83.959,112.706 82.459,113.796 80.6045,113.796 79.1045,112.706 78.5317,110.943 79.1045,109.18 80.6045,108.09 82.459,108.09 83.959,109.18 84.5317,110.943"/>
   <polyline stroke="#0071bc" stroke-linecap="round" fill="none" stroke-width="0.5" stroke-linejoin="round" points="81.2061,112.18 80.6328,113.943 79.1328,115.033 77.2788,115.033 75.7788,113.943 75.2061,112.18 75.7788,110.417 77.2788,109.327 79.1328,109.327 80.6328,110.417 81.2061,112.18"/>
   <polyline stroke="#0071bc" stroke-linecap="round" fill="none" stroke-width="0.5" stroke-linejoin="round" points="77.8799,113.536 77.3071,115.299 75.8071,116.389 73.9531,116.389 72.4531,115.299 71.8799,113.536 72.4531,111.772 73.9531,110.683 75.8071,110.683 77.3071,111.772 77.8799,113.536"/>
  </g>
 </g>
</svg>
