<?xml version='1.0' encoding='UTF-8' standalone='no'?>
<svg height="432pt" xmlns="http://www.w3.org/2000/svg" viewBox="0 0 576 432" xmlns:xlink="http://www.w3.org/1999/xlink" width="576pt">
 <title>gl2ps_renderer figure</title>
 <desc>
Creator: GL2PS 1.4.2, (C) 1999-2020 C. Geuzaine
For: Octave
CreationDate: Mon Dec 14 22:20:54 2020
</desc>
 <defs/>
 <polygon points="0,0 576,0 576,432 0,432" fill="#ffffff"/>
 <g>
  <polygon points="0,432 576,432 576,0 0,0" fill="#ffffff" shape-rendering="crispEdges"/>
  <clipPath id="cp00576432">
   <polygon points="0,432 576,432 576,0 0,0"/>
  </clipPath>
  <g clip-path="url(#cp00576432)">
   <polygon points="74.8799,384.48 521.28,384.48 521.28,32.3999 74.8799,32.3999" fill="#ffffff" shape-rendering="crispEdges"/>
   <polyline stroke-opacity="0.15" points="74.8799,384.48 74.8799,32.3999" stroke="#262626" fill="none" stroke-linecap="butt" stroke-dasharray="16,0" stroke-width="0.5" stroke-linejoin="miter"/>
   <polyline stroke-opacity="0.15" points="138.651,384.48 138.651,32.3999" stroke="#262626" fill="none" stroke-linecap="butt" stroke-dasharray="16,0" stroke-width="0.5" stroke-linejoin="miter"/>
   <polyline stroke-opacity="0.15" points="202.423,384.48 202.423,32.3999" stroke="#262626" fill="none" stroke-linecap="butt" stroke-dasharray="16,0" stroke-width="0.5" stroke-linejoin="miter"/>
   <polyline stroke-opacity="0.15" points="266.194,384.48 266.194,32.3999" stroke="#262626" fill="none" stroke-linecap="butt" stroke-dasharray="16,0" stroke-width="0.5" stroke-linejoin="miter"/>
   <polyline stroke-opacity="0.15" points="329.966,384.48 329.966,32.3999" stroke="#262626" fill="none" stroke-linecap="butt" stroke-dasharray="16,0" stroke-width="0.5" stroke-linejoin="miter"/>
   <polyline stroke-opacity="0.15" points="393.737,384.48 393.737,32.3999" stroke="#262626" fill="none" stroke-linecap="butt" stroke-dasharray="16,0" stroke-width="0.5" stroke-linejoin="miter"/>
   <polyline stroke-opacity="0.15" points="457.509,384.48 457.509,32.3999" stroke="#262626" fill="none" stroke-linecap="butt" stroke-dasharray="16,0" stroke-width="0.5" stroke-linejoin="miter"/>
   <polyline stroke-opacity="0.15" points="521.28,384.48 521.28,32.3999" stroke="#262626" fill="none" stroke-linecap="butt" stroke-dasharray="16,0" stroke-width="0.5" stroke-linejoin="miter"/>
   <polyline points="74.8799,384.48 74.8799,380.015" stroke="#262626" fill="none" stroke-linecap="butt" stroke-width="0.5" stroke-linejoin="miter"/>
   <polyline points="74.8799,32.3999 74.8799,36.8652" stroke="#262626" fill="none" stroke-linecap="butt" stroke-width="0.5" stroke-linejoin="miter"/>
   <polyline points="138.651,384.48 138.651,380.015" stroke="#262626" fill="none" stroke-linecap="butt" stroke-width="0.5" stroke-linejoin="miter"/>
   <polyline points="138.651,32.3999 138.651,36.8652" stroke="#262626" fill="none" stroke-linecap="butt" stroke-width="0.5" stroke-linejoin="miter"/>
   <polyline points="202.423,384.48 202.423,380.015" stroke="#262626" fill="none" stroke-linecap="butt" stroke-width="0.5" stroke-linejoin="miter"/>
   <polyline points="202.423,32.3999 202.423,36.8652" stroke="#262626" fill="none" stroke-linecap="butt" stroke-width="0.5" stroke-linejoin="miter"/>
   <polyline points="266.194,384.48 266.194,380.015" stroke="#262626" fill="none" stroke-linecap="butt" stroke-width="0.5" stroke-linejoin="miter"/>
   <polyline points="266.194,32.3999 266.194,36.8652" stroke="#262626" fill="none" stroke-linecap="butt" stroke-width="0.5" stroke-linejoin="miter"/>
   <polyline points="329.966,384.48 329.966,380.015" stroke="#262626" fill="none" stroke-linecap="butt" stroke-width="0.5" stroke-linejoin="miter"/>
   <polyline points="329.966,32.3999 329.966,36.8652" stroke="#262626" fill="none" stroke-linecap="butt" stroke-width="0.5" stroke-linejoin="miter"/>
   <polyline points="393.737,384.48 393.737,380.015" stroke="#262626" fill="none" stroke-linecap="butt" stroke-width="0.5" stroke-linejoin="miter"/>
   <polyline points="393.737,32.3999 393.737,36.8652" stroke="#262626" fill="none" stroke-linecap="butt" stroke-width="0.5" stroke-linejoin="miter"/>
   <polyline points="457.509,384.48 457.509,380.015" stroke="#262626" fill="none" stroke-linecap="butt" stroke-width="0.5" stroke-linejoin="miter"/>
   <polyline points="457.509,32.3999 457.509,36.8652" stroke="#262626" fill="none" stroke-linecap="butt" stroke-width="0.5" stroke-linejoin="miter"/>
   <polyline points="521.28,384.48 521.28,380.015" stroke="#262626" fill="none" stroke-linecap="butt" stroke-width="0.5" stroke-linejoin="miter"/>
   <polyline points="521.28,32.3999 521.28,36.8652" stroke="#262626" fill="none" stroke-linecap="butt" stroke-width="0.5" stroke-linejoin="miter"/>
   <text transform="translate(71.88,399.982) rotate(-0,3,-8)" font-family="FreeSans" font-style="normal" font-weight="normal" xml:space="preserve" font-size="10">
    <tspan fill="rgb(38,38,38)" y="-0" x="0 ">0</tspan>
   </text>
   <text transform="translate(135.651,399.982) rotate(-0,3,-8)" font-family="FreeSans" font-style="normal" font-weight="normal" xml:space="preserve" font-size="10">
    <tspan fill="rgb(38,38,38)" y="-0" x="0 ">5</tspan>
   </text>
   <text transform="translate(196.423,399.982) rotate(-0,6,-8)" font-family="FreeSans" font-style="normal" font-weight="normal" xml:space="preserve" font-size="10">
    <tspan fill="rgb(38,38,38)" y="-0" x="0 6 ">10</tspan>
   </text>
   <text transform="translate(260.194,399.982) rotate(-0,6,-8)" font-family="FreeSans" font-style="normal" font-weight="normal" xml:space="preserve" font-size="10">
    <tspan fill="rgb(38,38,38)" y="-0" x="0 6 ">15</tspan>
   </text>
   <text transform="translate(323.966,399.982) rotate(-0,6,-8)" font-family="FreeSans" font-style="normal" font-weight="normal" xml:space="preserve" font-size="10">
    <tspan fill="rgb(38,38,38)" y="-0" x="0 6 ">20</tspan>
   </text>
   <text transform="translate(387.737,399.982) rotate(-0,6,-8)" font-family="FreeSans" font-style="normal" font-weight="normal" xml:space="preserve" font-size="10">
    <tspan fill="rgb(38,38,38)" y="-0" x="0 6 ">25</tspan>
   </text>
   <text transform="translate(451.509,399.982) rotate(-0,6,-8)" font-family="FreeSans" font-style="normal" font-weight="normal" xml:space="preserve" font-size="10">
    <tspan fill="rgb(38,38,38)" y="-0" x="0 6 ">30</tspan>
   </text>
   <text transform="translate(515.28,399.982) rotate(-0,6,-8)" font-family="FreeSans" font-style="normal" font-weight="normal" xml:space="preserve" font-size="10">
    <tspan fill="rgb(38,38,38)" y="-0" x="0 6 ">35</tspan>
   </text>
   <polyline stroke-opacity="0.15" points="74.8799,384.48 521.28,384.48" stroke="#262626" fill="none" stroke-linecap="butt" stroke-dasharray="16,0" stroke-width="0.5" stroke-linejoin="miter"/>
   <polyline stroke-opacity="0.15" points="74.8799,325.8 521.28,325.8" stroke="#262626" fill="none" stroke-linecap="butt" stroke-dasharray="16,0" stroke-width="0.5" stroke-linejoin="miter"/>
   <polyline stroke-opacity="0.15" points="74.8799,267.12 521.28,267.12" stroke="#262626" fill="none" stroke-linecap="butt" stroke-dasharray="16,0" stroke-width="0.5" stroke-linejoin="miter"/>
   <polyline stroke-opacity="0.15" points="74.8799,208.44 521.28,208.44" stroke="#262626" fill="none" stroke-linecap="butt" stroke-dasharray="16,0" stroke-width="0.5" stroke-linejoin="miter"/>
   <polyline stroke-opacity="0.15" points="74.8799,149.76 521.28,149.76" stroke="#262626" fill="none" stroke-linecap="butt" stroke-dasharray="16,0" stroke-width="0.5" stroke-linejoin="miter"/>
   <polyline stroke-opacity="0.15" points="74.8799,91.0801 521.28,91.0801" stroke="#262626" fill="none" stroke-linecap="butt" stroke-dasharray="16,0" stroke-width="0.5" stroke-linejoin="miter"/>
   <polyline stroke-opacity="0.15" points="74.8799,32.3999 521.28,32.3999" stroke="#262626" fill="none" stroke-linecap="butt" stroke-dasharray="16,0" stroke-width="0.5" stroke-linejoin="miter"/>
   <polyline points="74.8799,384.48 79.3481,384.48" stroke="#262626" fill="none" stroke-linecap="butt" stroke-width="0.5" stroke-linejoin="miter"/>
   <polyline points="521.28,384.48 516.812,384.48" stroke="#262626" fill="none" stroke-linecap="butt" stroke-width="0.5" stroke-linejoin="miter"/>
   <polyline points="74.8799,325.8 79.3481,325.8" stroke="#262626" fill="none" stroke-linecap="butt" stroke-width="0.5" stroke-linejoin="miter"/>
   <polyline points="521.28,325.8 516.812,325.8" stroke="#262626" fill="none" stroke-linecap="butt" stroke-width="0.5" stroke-linejoin="miter"/>
   <polyline points="74.8799,267.12 79.3481,267.12" stroke="#262626" fill="none" stroke-linecap="butt" stroke-width="0.5" stroke-linejoin="miter"/>
   <polyline points="521.28,267.12 516.812,267.12" stroke="#262626" fill="none" stroke-linecap="butt" stroke-width="0.5" stroke-linejoin="miter"/>
   <polyline points="74.8799,208.44 79.3481,208.44" stroke="#262626" fill="none" stroke-linecap="butt" stroke-width="0.5" stroke-linejoin="miter"/>
   <polyline points="521.28,208.44 516.812,208.44" stroke="#262626" fill="none" stroke-linecap="butt" stroke-width="0.5" stroke-linejoin="miter"/>
   <polyline points="74.8799,149.76 79.3481,149.76" stroke="#262626" fill="none" stroke-linecap="butt" stroke-width="0.5" stroke-linejoin="miter"/>
   <polyline points="521.28,149.76 516.812,149.76" stroke="#262626" fill="none" stroke-linecap="butt" stroke-width="0.5" stroke-linejoin="miter"/>
   <polyline points="74.8799,91.0801 79.3481,91.0801" stroke="#262626" fill="none" stroke-linecap="butt" stroke-width="0.5" stroke-linejoin="miter"/>
   <polyline points="521.28,91.0801 516.812,91.0801" stroke="#262626" fill="none" stroke-linecap="butt" stroke-width="0.5" stroke-linejoin="miter"/>
   <polyline points="74.8799,32.3999 79.3481,32.3999" stroke="#262626" fill="none" stroke-linecap="butt" stroke-width="0.5" stroke-linejoin="miter"/>
   <polyline points="521.28,32.3999 516.812,32.3999" stroke="#262626" fill="none" stroke-linecap="butt" stroke-width="0.5" stroke-linejoin="miter"/>
   <text transform="translate(54.8755,388.48) rotate(-0,15,-4)" font-family="FreeSans" font-style="normal" font-weight="normal" xml:space="preserve" font-size="10">
    <tspan fill="rgb(38,38,38)" y="-0" x="0 3 9 ">-15</tspan>
   </text>
   <text transform="translate(54.8755,329.8) rotate(-0,15,-4)" font-family="FreeSans" font-style="normal" font-weight="normal" xml:space="preserve" font-size="10">
    <tspan fill="rgb(38,38,38)" y="-0" x="0 3 9 ">-10</tspan>
   </text>
   <text transform="translate(60.8755,271.12) rotate(-0,9,-4)" font-family="FreeSans" font-style="normal" font-weight="normal" xml:space="preserve" font-size="10">
    <tspan fill="rgb(38,38,38)" y="-0" x="0 3 ">-5</tspan>
   </text>
   <text transform="translate(63.8755,212.44) rotate(-0,6,-4)" font-family="FreeSans" font-style="normal" font-weight="normal" xml:space="preserve" font-size="10">
    <tspan fill="rgb(38,38,38)" y="-0" x="0 ">0</tspan>
   </text>
   <text transform="translate(63.8755,153.76) rotate(-0,6,-4)" font-family="FreeSans" font-style="normal" font-weight="normal" xml:space="preserve" font-size="10">
    <tspan fill="rgb(38,38,38)" y="-0" x="0 ">5</tspan>
   </text>
   <text transform="translate(57.8755,95.08) rotate(-0,12,-4)" font-family="FreeSans" font-style="normal" font-weight="normal" xml:space="preserve" font-size="10">
    <tspan fill="rgb(38,38,38)" y="-0" x="0 6 ">10</tspan>
   </text>
   <text transform="translate(57.8755,36.4) rotate(-0,12,-4)" font-family="FreeSans" font-style="normal" font-weight="normal" xml:space="preserve" font-size="10">
    <tspan fill="rgb(38,38,38)" y="-0" x="0 6 ">15</tspan>
   </text>
   <polyline points="74.8799,384.48 521.28,384.48" stroke="#262626" fill="none" stroke-linecap="square" stroke-dasharray="16,0" stroke-width="0.5" stroke-linejoin="miter"/>
   <polyline points="74.8799,32.3999 521.28,32.3999" stroke="#262626" fill="none" stroke-linecap="square" stroke-dasharray="16,0" stroke-width="0.5" stroke-linejoin="miter"/>
   <polyline points="74.8799,384.48 74.8799,32.3999" stroke="#262626" fill="none" stroke-linecap="square" stroke-dasharray="16,0" stroke-width="0.5" stroke-linejoin="miter"/>
   <polyline points="521.28,384.48 521.28,32.3999" stroke="#262626" fill="none" stroke-linecap="square" stroke-dasharray="16,0" stroke-width="0.5" stroke-linejoin="miter"/>
   <text transform="translate(294.58,413.982) rotate(-0,3.5,-9)" font-family="FreeSans" font-style="normal" font-weight="normal" xml:space="preserve" font-size="11">
    <tspan fill="rgb(38,38,38)" y="-0" x="0 ">X</tspan>
   </text>
   <text transform="translate(46.3755,208.44) rotate(-90,3.5,0)" font-family="FreeSans" font-style="normal" font-weight="normal" xml:space="preserve" font-size="11">
    <tspan fill="rgb(38,38,38)" y="-0" x="0 ">Y</tspan>
   </text>
   <text transform="translate(269.58,22.4) rotate(-0,28.5,0)" font-family="FreeSans" font-style="normal" font-weight="bold" xml:space="preserve" font-size="11">
    <tspan fill="rgb(0,0,0)" y="-3" x="0 10 16 19 26 29 40 43 50 ">Main Wing</tspan>
   </text>
   <polyline points="74.8799,208.44 498.357,335.051" stroke="#0071bc" fill="none" stroke-linecap="butt" stroke-width="2" stroke-linejoin="round"/>
   <polyline points="74.8799,77.1543 498.357,293.151" stroke="#d85218" fill="none" stroke-linecap="butt" stroke-width="2" stroke-linejoin="round"/>
   <polyline points="74.8799,208.44 74.8799,77.1543" stroke="#ecb01f" fill="none" stroke-linecap="butt" stroke-width="2" stroke-linejoin="round"/>
   <polyline points="498.357,335.051 498.357,293.151" stroke="#7d2e8d" fill="none" stroke-linecap="butt" stroke-width="2" stroke-linejoin="round"/>
  </g>
 </g>
</svg>
