<?xml version='1.0' encoding='UTF-8' standalone='no'?>
<svg width="576pt" viewBox="0 0 576 432" xmlns="http://www.w3.org/2000/svg" height="432pt" xmlns:xlink="http://www.w3.org/1999/xlink">
 <title>gl2ps_renderer figure</title>
 <desc>
Creator: GL2PS 1.4.2, (C) 1999-2020 C. Geuzaine
For: Octave
CreationDate: Mon Dec 14 22:02:49 2020
</desc>
 <defs/>
 <polygon fill="#ffffff" points="0,0 576,0 576,432 0,432"/>
 <g>
  <polygon fill="#ffffff" shape-rendering="crispEdges" points="0,432 576,432 576,0 0,0"/>
  <clipPath id="cp00576432">
   <polygon points="0,432 576,432 576,0 0,0"/>
  </clipPath>
  <g clip-path="url(#cp00576432)">
   <polygon fill="#ffffff" shape-rendering="crispEdges" points="74.8799,384.48 521.28,384.48 521.28,32.3999 74.8799,32.3999"/>
   <polyline stroke-dasharray="16,0" stroke-opacity="0.15" stroke="#262626" stroke-linecap="butt" fill="none" stroke-width="0.5" points="74.8799,384.48 74.8799,32.3999" stroke-linejoin="miter"/>
   <polyline stroke-dasharray="16,0" stroke-opacity="0.15" stroke="#262626" stroke-linecap="butt" fill="none" stroke-width="0.5" points="186.48,384.48 186.48,32.3999" stroke-linejoin="miter"/>
   <polyline stroke-dasharray="16,0" stroke-opacity="0.15" stroke="#262626" stroke-linecap="butt" fill="none" stroke-width="0.5" points="298.08,384.48 298.08,32.3999" stroke-linejoin="miter"/>
   <polyline stroke-dasharray="16,0" stroke-opacity="0.15" stroke="#262626" stroke-linecap="butt" fill="none" stroke-width="0.5" points="409.68,384.48 409.68,32.3999" stroke-linejoin="miter"/>
   <polyline stroke-dasharray="16,0" stroke-opacity="0.15" stroke="#262626" stroke-linecap="butt" fill="none" stroke-width="0.5" points="521.28,384.48 521.28,32.3999" stroke-linejoin="miter"/>
   <polyline stroke="#262626" stroke-linecap="butt" fill="none" stroke-width="0.5" points="74.8799,384.48 74.8799,380.015" stroke-linejoin="miter"/>
   <polyline stroke="#262626" stroke-linecap="butt" fill="none" stroke-width="0.5" points="74.8799,32.3999 74.8799,36.8652" stroke-linejoin="miter"/>
   <polyline stroke="#262626" stroke-linecap="butt" fill="none" stroke-width="0.5" points="186.48,384.48 186.48,380.015" stroke-linejoin="miter"/>
   <polyline stroke="#262626" stroke-linecap="butt" fill="none" stroke-width="0.5" points="186.48,32.3999 186.48,36.8652" stroke-linejoin="miter"/>
   <polyline stroke="#262626" stroke-linecap="butt" fill="none" stroke-width="0.5" points="298.08,384.48 298.08,380.015" stroke-linejoin="miter"/>
   <polyline stroke="#262626" stroke-linecap="butt" fill="none" stroke-width="0.5" points="298.08,32.3999 298.08,36.8652" stroke-linejoin="miter"/>
   <polyline stroke="#262626" stroke-linecap="butt" fill="none" stroke-width="0.5" points="409.68,384.48 409.68,380.015" stroke-linejoin="miter"/>
   <polyline stroke="#262626" stroke-linecap="butt" fill="none" stroke-width="0.5" points="409.68,32.3999 409.68,36.8652" stroke-linejoin="miter"/>
   <polyline stroke="#262626" stroke-linecap="butt" fill="none" stroke-width="0.5" points="521.28,384.48 521.28,380.015" stroke-linejoin="miter"/>
   <polyline stroke="#262626" stroke-linecap="butt" fill="none" stroke-width="0.5" points="521.28,32.3999 521.28,36.8652" stroke-linejoin="miter"/>
   <text font-weight="normal" font-size="10" xml:space="preserve" font-family="FreeSans" font-style="normal" transform="translate(60.38,399.982) rotate(-0,14.5,-8)">
    <tspan x="0 6 11 17 23 " y="-0" fill="rgb(38,38,38)">1e+07</tspan>
   </text>
   <text font-weight="normal" font-size="10" xml:space="preserve" font-family="FreeSans" font-style="normal" transform="translate(167.48,399.982) rotate(-0,19,-8)">
    <tspan x="0 6 9 15 20 26 32 " y="-0" fill="rgb(38,38,38)">1.2e+07</tspan>
   </text>
   <text font-weight="normal" font-size="10" xml:space="preserve" font-family="FreeSans" font-style="normal" transform="translate(279.08,399.982) rotate(-0,19,-8)">
    <tspan x="0 6 9 15 20 26 32 " y="-0" fill="rgb(38,38,38)">1.4e+07</tspan>
   </text>
   <text font-weight="normal" font-size="10" xml:space="preserve" font-family="FreeSans" font-style="normal" transform="translate(390.68,399.982) rotate(-0,19,-8)">
    <tspan x="0 6 9 15 20 26 32 " y="-0" fill="rgb(38,38,38)">1.6e+07</tspan>
   </text>
   <text font-weight="normal" font-size="10" xml:space="preserve" font-family="FreeSans" font-style="normal" transform="translate(502.28,399.982) rotate(-0,19,-8)">
    <tspan x="0 6 9 15 20 26 32 " y="-0" fill="rgb(38,38,38)">1.8e+07</tspan>
   </text>
   <polyline stroke-dasharray="16,0" stroke-opacity="0.15" stroke="#262626" stroke-linecap="butt" fill="none" stroke-width="0.5" points="74.8799,384.48 521.28,384.48" stroke-linejoin="miter"/>
   <polyline stroke-dasharray="16,0" stroke-opacity="0.15" stroke="#262626" stroke-linecap="butt" fill="none" stroke-width="0.5" points="74.8799,314.064 521.28,314.064" stroke-linejoin="miter"/>
   <polyline stroke-dasharray="16,0" stroke-opacity="0.15" stroke="#262626" stroke-linecap="butt" fill="none" stroke-width="0.5" points="74.8799,243.648 521.28,243.648" stroke-linejoin="miter"/>
   <polyline stroke-dasharray="16,0" stroke-opacity="0.15" stroke="#262626" stroke-linecap="butt" fill="none" stroke-width="0.5" points="74.8799,173.232 521.28,173.232" stroke-linejoin="miter"/>
   <polyline stroke-dasharray="16,0" stroke-opacity="0.15" stroke="#262626" stroke-linecap="butt" fill="none" stroke-width="0.5" points="74.8799,102.816 521.28,102.816" stroke-linejoin="miter"/>
   <polyline stroke-dasharray="16,0" stroke-opacity="0.15" stroke="#262626" stroke-linecap="butt" fill="none" stroke-width="0.5" points="74.8799,32.3999 521.28,32.3999" stroke-linejoin="miter"/>
   <polyline stroke="#262626" stroke-linecap="butt" fill="none" stroke-width="0.5" points="74.8799,384.48 79.3481,384.48" stroke-linejoin="miter"/>
   <polyline stroke="#262626" stroke-linecap="butt" fill="none" stroke-width="0.5" points="521.28,384.48 516.812,384.48" stroke-linejoin="miter"/>
   <polyline stroke="#262626" stroke-linecap="butt" fill="none" stroke-width="0.5" points="74.8799,314.064 79.3481,314.064" stroke-linejoin="miter"/>
   <polyline stroke="#262626" stroke-linecap="butt" fill="none" stroke-width="0.5" points="521.28,314.064 516.812,314.064" stroke-linejoin="miter"/>
   <polyline stroke="#262626" stroke-linecap="butt" fill="none" stroke-width="0.5" points="74.8799,243.648 79.3481,243.648" stroke-linejoin="miter"/>
   <polyline stroke="#262626" stroke-linecap="butt" fill="none" stroke-width="0.5" points="521.28,243.648 516.812,243.648" stroke-linejoin="miter"/>
   <polyline stroke="#262626" stroke-linecap="butt" fill="none" stroke-width="0.5" points="74.8799,173.232 79.3481,173.232" stroke-linejoin="miter"/>
   <polyline stroke="#262626" stroke-linecap="butt" fill="none" stroke-width="0.5" points="521.28,173.232 516.812,173.232" stroke-linejoin="miter"/>
   <polyline stroke="#262626" stroke-linecap="butt" fill="none" stroke-width="0.5" points="74.8799,102.816 79.3481,102.816" stroke-linejoin="miter"/>
   <polyline stroke="#262626" stroke-linecap="butt" fill="none" stroke-width="0.5" points="521.28,102.816 516.812,102.816" stroke-linejoin="miter"/>
   <polyline stroke="#262626" stroke-linecap="butt" fill="none" stroke-width="0.5" points="74.8799,32.3999 79.3481,32.3999" stroke-linejoin="miter"/>
   <polyline stroke="#262626" stroke-linecap="butt" fill="none" stroke-width="0.5" points="521.28,32.3999 516.812,32.3999" stroke-linejoin="miter"/>
   <text font-weight="normal" font-size="10" xml:space="preserve" font-family="FreeSans" font-style="normal" transform="translate(63.8755,388.48) rotate(-0,6,-4)">
    <tspan x="0 " y="-0" fill="rgb(38,38,38)">0</tspan>
   </text>
   <text font-weight="normal" font-size="10" xml:space="preserve" font-family="FreeSans" font-style="normal" transform="translate(33.8755,318.064) rotate(-0,36,-4)">
    <tspan x="0 6 12 18 24 30 " y="-0" fill="rgb(38,38,38)">100000</tspan>
   </text>
   <text font-weight="normal" font-size="10" xml:space="preserve" font-family="FreeSans" font-style="normal" transform="translate(33.8755,247.648) rotate(-0,36,-4)">
    <tspan x="0 6 12 18 24 30 " y="-0" fill="rgb(38,38,38)">200000</tspan>
   </text>
   <text font-weight="normal" font-size="10" xml:space="preserve" font-family="FreeSans" font-style="normal" transform="translate(33.8755,177.232) rotate(-0,36,-4)">
    <tspan x="0 6 12 18 24 30 " y="-0" fill="rgb(38,38,38)">300000</tspan>
   </text>
   <text font-weight="normal" font-size="10" xml:space="preserve" font-family="FreeSans" font-style="normal" transform="translate(33.8755,106.816) rotate(-0,36,-4)">
    <tspan x="0 6 12 18 24 30 " y="-0" fill="rgb(38,38,38)">400000</tspan>
   </text>
   <text font-weight="normal" font-size="10" xml:space="preserve" font-family="FreeSans" font-style="normal" transform="translate(33.8755,36.4) rotate(-0,36,-4)">
    <tspan x="0 6 12 18 24 30 " y="-0" fill="rgb(38,38,38)">500000</tspan>
   </text>
   <polyline stroke-dasharray="16,0" stroke="#262626" stroke-linecap="square" fill="none" stroke-width="0.5" points="74.8799,384.48 521.28,384.48" stroke-linejoin="miter"/>
   <polyline stroke-dasharray="16,0" stroke="#262626" stroke-linecap="square" fill="none" stroke-width="0.5" points="74.8799,32.3999 521.28,32.3999" stroke-linejoin="miter"/>
   <polyline stroke-dasharray="16,0" stroke="#262626" stroke-linecap="square" fill="none" stroke-width="0.5" points="74.8799,384.48 74.8799,32.3999" stroke-linejoin="miter"/>
   <polyline stroke-dasharray="16,0" stroke="#262626" stroke-linecap="square" fill="none" stroke-width="0.5" points="521.28,384.48 521.28,32.3999" stroke-linejoin="miter"/>
   <text font-weight="normal" font-size="11" xml:space="preserve" font-family="FreeSans" font-style="normal" transform="translate(275.08,415.982) rotate(-0,23,-11)">
    <tspan x="0 4 10 16 22 28 31 34 43 " y="-2" fill="rgb(38,38,38)">range [m]</tspan>
   </text>
   <text font-weight="normal" font-size="11" xml:space="preserve" font-family="FreeSans" font-style="normal" transform="translate(0.875516,208.44) rotate(-90,28,0)">
    <tspan x="0 9 16 25 35 38 41 47 53 " y="-2" fill="rgb(38,38,38)">MTOW [kg]</tspan>
   </text>
   <polyline stroke="#0071bc" stroke-linecap="butt" fill="none" stroke-width="2" points="74.8799,232.65 79.3892,231.576 83.8984,230.489 88.4072,229.391 92.9165,228.281 97.4253,227.159 101.935,226.024 106.444,224.876 110.953,223.716 115.462,222.543 119.971,221.356 124.48,220.156 128.989,218.942 133.498,217.715 138.007,216.473 142.517,215.217 147.025,213.947 151.535,212.661 156.044,211.361 160.553,210.045 165.062,208.714 169.571,207.368 174.08,206.005 178.589,204.626 183.098,203.231 187.607,201.819 192.116,200.389 196.625,198.943 201.135,197.479 205.644,195.997 210.153,194.496 214.662,192.978 219.171,191.44 223.68,189.883 228.189,188.307 232.698,186.711 237.208,185.095 241.716,183.458 246.226,181.801 250.734,180.123 255.244,178.422 259.753,176.701 264.262,174.957 268.771,173.189 273.28,171.399 277.789,169.586 282.298,167.748 286.807,165.887 291.316,164 295.826,162.088 300.334,160.151 304.844,158.187 309.353,156.197 313.862,154.18 318.371,152.135 322.88,150.062 327.389,147.96 331.898,145.829 336.407,143.668 340.917,141.478 345.426,139.256 349.935,137.003 354.444,134.718 358.953,132.4 363.462,130.05 367.971,127.665 372.48,125.246 376.989,122.792 381.498,120.301 386.007,117.774 390.517,115.21 395.025,112.607 399.535,109.967 404.044,107.286 408.553,104.565 413.062,101.803 417.571,98.9985 422.08,96.1519 426.589,384.48 431.098,384.48 435.607,384.48 440.116,384.48 444.625,384.48 449.135,384.48 453.644,384.48 458.153,384.48 462.662,384.48 467.171,384.48 471.68,384.48 476.189,384.48 480.698,384.48 485.208,384.48 489.716,384.48 494.226,384.48 498.734,384.48 503.244,384.48 507.753,384.48 512.262,384.48 516.771,384.48 521.28,384.48" stroke-linejoin="round"/>
  </g>
 </g>
</svg>
