<?xml version='1.0' encoding='UTF-8' standalone='no'?>
<svg xmlns:xlink="http://www.w3.org/1999/xlink" width="576pt" height="432pt" viewBox="0 0 576 432" xmlns="http://www.w3.org/2000/svg">
 <title>gl2ps_renderer figure</title>
 <desc>
Creator: GL2PS 1.4.2, (C) 1999-2020 C. Geuzaine
For: Octave
CreationDate: Mon Dec 14 22:17:00 2020
</desc>
 <defs/>
 <polygon points="0,0 576,0 576,432 0,432" fill="#ffffff"/>
 <g>
  <polygon points="0,432 576,432 576,0 0,0" shape-rendering="crispEdges" fill="#ffffff"/>
  <clipPath id="cp00576432">
   <polygon points="0,432 576,432 576,0 0,0"/>
  </clipPath>
  <g clip-path="url(#cp00576432)">
   <polygon points="74.8799,384.48 521.28,384.48 521.28,32.3999 74.8799,32.3999" shape-rendering="crispEdges" fill="#ffffff"/>
   <polyline stroke-linecap="butt" points="74.8799,384.48 74.8799,32.3999" stroke="#262626" stroke-dasharray="16,0" stroke-linejoin="miter" fill="none" stroke-width="0.5" stroke-opacity="0.15"/>
   <polyline stroke-linecap="butt" points="149.28,384.48 149.28,32.3999" stroke="#262626" stroke-dasharray="16,0" stroke-linejoin="miter" fill="none" stroke-width="0.5" stroke-opacity="0.15"/>
   <polyline stroke-linecap="butt" points="223.68,384.48 223.68,32.3999" stroke="#262626" stroke-dasharray="16,0" stroke-linejoin="miter" fill="none" stroke-width="0.5" stroke-opacity="0.15"/>
   <polyline stroke-linecap="butt" points="298.08,384.48 298.08,32.3999" stroke="#262626" stroke-dasharray="16,0" stroke-linejoin="miter" fill="none" stroke-width="0.5" stroke-opacity="0.15"/>
   <polyline stroke-linecap="butt" points="372.48,384.48 372.48,32.3999" stroke="#262626" stroke-dasharray="16,0" stroke-linejoin="miter" fill="none" stroke-width="0.5" stroke-opacity="0.15"/>
   <polyline stroke-linecap="butt" points="446.88,384.48 446.88,32.3999" stroke="#262626" stroke-dasharray="16,0" stroke-linejoin="miter" fill="none" stroke-width="0.5" stroke-opacity="0.15"/>
   <polyline stroke-linecap="butt" points="521.28,384.48 521.28,32.3999" stroke="#262626" stroke-dasharray="16,0" stroke-linejoin="miter" fill="none" stroke-width="0.5" stroke-opacity="0.15"/>
   <polyline stroke-linecap="butt" points="74.8799,384.48 74.8799,380.015" stroke="#262626" stroke-linejoin="miter" fill="none" stroke-width="0.5"/>
   <polyline stroke-linecap="butt" points="74.8799,32.3999 74.8799,36.8652" stroke="#262626" stroke-linejoin="miter" fill="none" stroke-width="0.5"/>
   <polyline stroke-linecap="butt" points="149.28,384.48 149.28,380.015" stroke="#262626" stroke-linejoin="miter" fill="none" stroke-width="0.5"/>
   <polyline stroke-linecap="butt" points="149.28,32.3999 149.28,36.8652" stroke="#262626" stroke-linejoin="miter" fill="none" stroke-width="0.5"/>
   <polyline stroke-linecap="butt" points="223.68,384.48 223.68,380.015" stroke="#262626" stroke-linejoin="miter" fill="none" stroke-width="0.5"/>
   <polyline stroke-linecap="butt" points="223.68,32.3999 223.68,36.8652" stroke="#262626" stroke-linejoin="miter" fill="none" stroke-width="0.5"/>
   <polyline stroke-linecap="butt" points="298.08,384.48 298.08,380.015" stroke="#262626" stroke-linejoin="miter" fill="none" stroke-width="0.5"/>
   <polyline stroke-linecap="butt" points="298.08,32.3999 298.08,36.8652" stroke="#262626" stroke-linejoin="miter" fill="none" stroke-width="0.5"/>
   <polyline stroke-linecap="butt" points="372.48,384.48 372.48,380.015" stroke="#262626" stroke-linejoin="miter" fill="none" stroke-width="0.5"/>
   <polyline stroke-linecap="butt" points="372.48,32.3999 372.48,36.8652" stroke="#262626" stroke-linejoin="miter" fill="none" stroke-width="0.5"/>
   <polyline stroke-linecap="butt" points="446.88,384.48 446.88,380.015" stroke="#262626" stroke-linejoin="miter" fill="none" stroke-width="0.5"/>
   <polyline stroke-linecap="butt" points="446.88,32.3999 446.88,36.8652" stroke="#262626" stroke-linejoin="miter" fill="none" stroke-width="0.5"/>
   <polyline stroke-linecap="butt" points="521.28,384.48 521.28,380.015" stroke="#262626" stroke-linejoin="miter" fill="none" stroke-width="0.5"/>
   <polyline stroke-linecap="butt" points="521.28,32.3999 521.28,36.8652" stroke="#262626" stroke-linejoin="miter" fill="none" stroke-width="0.5"/>
   <text transform="translate(59.88,399.982) rotate(-0,15,-8)" font-size="10" xml:space="preserve" font-weight="normal" font-style="normal" font-family="FreeSans">
    <tspan y="-0" fill="rgb(38,38,38)" x="0 6 12 18 24 ">20000</tspan>
   </text>
   <text transform="translate(134.28,399.982) rotate(-0,15,-8)" font-size="10" xml:space="preserve" font-weight="normal" font-style="normal" font-family="FreeSans">
    <tspan y="-0" fill="rgb(38,38,38)" x="0 6 12 18 24 ">30000</tspan>
   </text>
   <text transform="translate(208.68,399.982) rotate(-0,15,-8)" font-size="10" xml:space="preserve" font-weight="normal" font-style="normal" font-family="FreeSans">
    <tspan y="-0" fill="rgb(38,38,38)" x="0 6 12 18 24 ">40000</tspan>
   </text>
   <text transform="translate(283.08,399.982) rotate(-0,15,-8)" font-size="10" xml:space="preserve" font-weight="normal" font-style="normal" font-family="FreeSans">
    <tspan y="-0" fill="rgb(38,38,38)" x="0 6 12 18 24 ">50000</tspan>
   </text>
   <text transform="translate(357.48,399.982) rotate(-0,15,-8)" font-size="10" xml:space="preserve" font-weight="normal" font-style="normal" font-family="FreeSans">
    <tspan y="-0" fill="rgb(38,38,38)" x="0 6 12 18 24 ">60000</tspan>
   </text>
   <text transform="translate(431.88,399.982) rotate(-0,15,-8)" font-size="10" xml:space="preserve" font-weight="normal" font-style="normal" font-family="FreeSans">
    <tspan y="-0" fill="rgb(38,38,38)" x="0 6 12 18 24 ">70000</tspan>
   </text>
   <text transform="translate(506.28,399.982) rotate(-0,15,-8)" font-size="10" xml:space="preserve" font-weight="normal" font-style="normal" font-family="FreeSans">
    <tspan y="-0" fill="rgb(38,38,38)" x="0 6 12 18 24 ">80000</tspan>
   </text>
   <polyline stroke-linecap="butt" points="74.8799,384.48 521.28,384.48" stroke="#262626" stroke-dasharray="16,0" stroke-linejoin="miter" fill="none" stroke-width="0.5" stroke-opacity="0.15"/>
   <polyline stroke-linecap="butt" points="74.8799,314.064 521.28,314.064" stroke="#262626" stroke-dasharray="16,0" stroke-linejoin="miter" fill="none" stroke-width="0.5" stroke-opacity="0.15"/>
   <polyline stroke-linecap="butt" points="74.8799,243.648 521.28,243.648" stroke="#262626" stroke-dasharray="16,0" stroke-linejoin="miter" fill="none" stroke-width="0.5" stroke-opacity="0.15"/>
   <polyline stroke-linecap="butt" points="74.8799,173.232 521.28,173.232" stroke="#262626" stroke-dasharray="16,0" stroke-linejoin="miter" fill="none" stroke-width="0.5" stroke-opacity="0.15"/>
   <polyline stroke-linecap="butt" points="74.8799,102.816 521.28,102.816" stroke="#262626" stroke-dasharray="16,0" stroke-linejoin="miter" fill="none" stroke-width="0.5" stroke-opacity="0.15"/>
   <polyline stroke-linecap="butt" points="74.8799,32.3999 521.28,32.3999" stroke="#262626" stroke-dasharray="16,0" stroke-linejoin="miter" fill="none" stroke-width="0.5" stroke-opacity="0.15"/>
   <polyline stroke-linecap="butt" points="74.8799,384.48 79.3481,384.48" stroke="#262626" stroke-linejoin="miter" fill="none" stroke-width="0.5"/>
   <polyline stroke-linecap="butt" points="521.28,384.48 516.812,384.48" stroke="#262626" stroke-linejoin="miter" fill="none" stroke-width="0.5"/>
   <polyline stroke-linecap="butt" points="74.8799,314.064 79.3481,314.064" stroke="#262626" stroke-linejoin="miter" fill="none" stroke-width="0.5"/>
   <polyline stroke-linecap="butt" points="521.28,314.064 516.812,314.064" stroke="#262626" stroke-linejoin="miter" fill="none" stroke-width="0.5"/>
   <polyline stroke-linecap="butt" points="74.8799,243.648 79.3481,243.648" stroke="#262626" stroke-linejoin="miter" fill="none" stroke-width="0.5"/>
   <polyline stroke-linecap="butt" points="521.28,243.648 516.812,243.648" stroke="#262626" stroke-linejoin="miter" fill="none" stroke-width="0.5"/>
   <polyline stroke-linecap="butt" points="74.8799,173.232 79.3481,173.232" stroke="#262626" stroke-linejoin="miter" fill="none" stroke-width="0.5"/>
   <polyline stroke-linecap="butt" points="521.28,173.232 516.812,173.232" stroke="#262626" stroke-linejoin="miter" fill="none" stroke-width="0.5"/>
   <polyline stroke-linecap="butt" points="74.8799,102.816 79.3481,102.816" stroke="#262626" stroke-linejoin="miter" fill="none" stroke-width="0.5"/>
   <polyline stroke-linecap="butt" points="521.28,102.816 516.812,102.816" stroke="#262626" stroke-linejoin="miter" fill="none" stroke-width="0.5"/>
   <polyline stroke-linecap="butt" points="74.8799,32.3999 79.3481,32.3999" stroke="#262626" stroke-linejoin="miter" fill="none" stroke-width="0.5"/>
   <polyline stroke-linecap="butt" points="521.28,32.3999 516.812,32.3999" stroke="#262626" stroke-linejoin="miter" fill="none" stroke-width="0.5"/>
   <text transform="translate(63.8755,388.48) rotate(-0,6,-4)" font-size="10" xml:space="preserve" font-weight="normal" font-style="normal" font-family="FreeSans">
    <tspan y="-0" fill="rgb(38,38,38)" x="0 ">0</tspan>
   </text>
   <text transform="translate(33.8755,318.064) rotate(-0,36,-4)" font-size="10" xml:space="preserve" font-weight="normal" font-style="normal" font-family="FreeSans">
    <tspan y="-0" fill="rgb(38,38,38)" x="0 6 12 18 24 30 ">100000</tspan>
   </text>
   <text transform="translate(33.8755,247.648) rotate(-0,36,-4)" font-size="10" xml:space="preserve" font-weight="normal" font-style="normal" font-family="FreeSans">
    <tspan y="-0" fill="rgb(38,38,38)" x="0 6 12 18 24 30 ">200000</tspan>
   </text>
   <text transform="translate(33.8755,177.232) rotate(-0,36,-4)" font-size="10" xml:space="preserve" font-weight="normal" font-style="normal" font-family="FreeSans">
    <tspan y="-0" fill="rgb(38,38,38)" x="0 6 12 18 24 30 ">300000</tspan>
   </text>
   <text transform="translate(33.8755,106.816) rotate(-0,36,-4)" font-size="10" xml:space="preserve" font-weight="normal" font-style="normal" font-family="FreeSans">
    <tspan y="-0" fill="rgb(38,38,38)" x="0 6 12 18 24 30 ">400000</tspan>
   </text>
   <text transform="translate(33.8755,36.4) rotate(-0,36,-4)" font-size="10" xml:space="preserve" font-weight="normal" font-style="normal" font-family="FreeSans">
    <tspan y="-0" fill="rgb(38,38,38)" x="0 6 12 18 24 30 ">500000</tspan>
   </text>
   <polyline stroke-linecap="square" points="74.8799,384.48 521.28,384.48" stroke="#262626" stroke-dasharray="16,0" stroke-linejoin="miter" fill="none" stroke-width="0.5"/>
   <polyline stroke-linecap="square" points="74.8799,32.3999 521.28,32.3999" stroke="#262626" stroke-dasharray="16,0" stroke-linejoin="miter" fill="none" stroke-width="0.5"/>
   <polyline stroke-linecap="square" points="74.8799,384.48 74.8799,32.3999" stroke="#262626" stroke-dasharray="16,0" stroke-linejoin="miter" fill="none" stroke-width="0.5"/>
   <polyline stroke-linecap="square" points="521.28,384.48 521.28,32.3999" stroke="#262626" stroke-dasharray="16,0" stroke-linejoin="miter" fill="none" stroke-width="0.5"/>
   <text transform="translate(269.08,416.982) rotate(-0,29,-12)" font-size="11" xml:space="preserve" font-weight="normal" font-style="normal" font-family="FreeSans">
    <tspan y="-3" fill="rgb(38,38,38)" x="0 6 12 17 19 25 31 37 40 43 49 55 ">payload [kg]</tspan>
   </text>
   <text transform="translate(0.875516,208.44) rotate(-90,28,0)" font-size="11" xml:space="preserve" font-weight="normal" font-style="normal" font-family="FreeSans">
    <tspan y="-2" fill="rgb(38,38,38)" x="0 9 16 25 35 38 41 47 53 ">MTOW [kg]</tspan>
   </text>
   <polyline stroke-linecap="butt" points="74.8799,384.48 79.3892,384.48 83.8979,384.48 88.4072,384.48 92.9165,384.48 97.4253,384.48 101.935,384.48 106.444,384.48 110.953,384.48 115.462,384.48 119.971,384.48 124.48,384.48 128.989,384.48 133.498,384.48 138.007,384.48 142.516,384.48 147.025,384.48 151.535,384.48 156.043,384.48 160.553,384.48 165.062,384.48 169.571,384.48 174.08,384.48 178.589,238.779 183.098,236.728 187.607,234.682 192.116,232.641 196.625,230.604 201.135,228.573 205.644,226.546 210.153,224.524 214.662,222.506 219.171,220.493 223.68,218.484 228.189,216.479 232.698,214.478 237.208,212.481 241.716,210.489 246.226,208.5 250.734,206.515 255.244,204.534 259.753,202.557 264.262,200.583 268.771,198.613 273.28,196.646 277.789,194.683 282.298,192.723 286.807,190.767 291.316,188.813 295.826,186.863 300.334,184.917 304.844,182.973 309.353,181.033 313.862,179.095 318.371,177.161 322.88,175.229 327.389,173.301 331.898,171.375 336.407,169.453 340.917,167.532 345.425,165.615 349.935,163.701 354.444,161.789 358.953,159.879 363.462,157.973 367.971,156.069 372.48,154.167 376.989,152.269 381.498,150.372 386.007,148.478 390.516,146.586 395.025,144.697 399.535,142.811 404.043,140.926 408.553,139.044 413.062,137.164 417.571,135.286 422.08,133.411 426.589,131.538 431.098,129.667 435.607,127.797 440.116,125.931 444.625,124.066 449.135,122.204 453.644,120.343 458.153,118.484 462.662,116.628 467.171,114.773 471.68,112.921 476.189,111.07 480.698,109.221 485.207,107.375 489.716,105.53 494.226,103.687 498.734,101.845 503.244,100.006 507.753,98.1685 512.262,96.333 516.771,94.499 521.28,384.48" stroke="#0000ff" stroke-linejoin="round" fill="none" stroke-width="2"/>
  </g>
 </g>
</svg>
