<?xml version='1.0' encoding='UTF-8' standalone='no'?>
<svg xmlns="http://www.w3.org/2000/svg" height="432pt" viewBox="0 0 576 432" width="576pt" xmlns:xlink="http://www.w3.org/1999/xlink">
 <title>gl2ps_renderer figure</title>
 <desc>
Creator: GL2PS 1.4.2, (C) 1999-2020 C. Geuzaine
For: Octave
CreationDate: Mon Dec 14 22:18:24 2020
</desc>
 <defs/>
 <polygon fill="#ffffff" points="0,0 576,0 576,432 0,432"/>
 <g>
  <polygon fill="#ffffff" shape-rendering="crispEdges" points="0,432 576,432 576,0 0,0"/>
  <clipPath id="cp00576432">
   <polygon points="0,432 576,432 576,0 0,0"/>
  </clipPath>
  <g clip-path="url(#cp00576432)">
   <polygon fill="#ffffff" shape-rendering="crispEdges" points="74.8799,384.48 521.28,384.48 521.28,32.3999 74.8799,32.3999"/>
   <polyline stroke="#262626" fill="none" stroke-width="0.5" stroke-opacity="0.15" stroke-linejoin="miter" stroke-dasharray="16,0" stroke-linecap="butt" points="74.8799,384.48 74.8799,32.3999"/>
   <polyline stroke="#262626" fill="none" stroke-width="0.5" stroke-opacity="0.15" stroke-linejoin="miter" stroke-dasharray="16,0" stroke-linecap="butt" points="149.28,384.48 149.28,32.3999"/>
   <polyline stroke="#262626" fill="none" stroke-width="0.5" stroke-opacity="0.15" stroke-linejoin="miter" stroke-dasharray="16,0" stroke-linecap="butt" points="223.68,384.48 223.68,32.3999"/>
   <polyline stroke="#262626" fill="none" stroke-width="0.5" stroke-opacity="0.15" stroke-linejoin="miter" stroke-dasharray="16,0" stroke-linecap="butt" points="298.08,384.48 298.08,32.3999"/>
   <polyline stroke="#262626" fill="none" stroke-width="0.5" stroke-opacity="0.15" stroke-linejoin="miter" stroke-dasharray="16,0" stroke-linecap="butt" points="372.48,384.48 372.48,32.3999"/>
   <polyline stroke="#262626" fill="none" stroke-width="0.5" stroke-opacity="0.15" stroke-linejoin="miter" stroke-dasharray="16,0" stroke-linecap="butt" points="446.88,384.48 446.88,32.3999"/>
   <polyline stroke="#262626" fill="none" stroke-width="0.5" stroke-opacity="0.15" stroke-linejoin="miter" stroke-dasharray="16,0" stroke-linecap="butt" points="521.28,384.48 521.28,32.3999"/>
   <polyline stroke="#262626" fill="none" stroke-width="0.5" stroke-linejoin="miter" stroke-linecap="butt" points="74.8799,384.48 74.8799,380.015"/>
   <polyline stroke="#262626" fill="none" stroke-width="0.5" stroke-linejoin="miter" stroke-linecap="butt" points="74.8799,32.3999 74.8799,36.8652"/>
   <polyline stroke="#262626" fill="none" stroke-width="0.5" stroke-linejoin="miter" stroke-linecap="butt" points="149.28,384.48 149.28,380.015"/>
   <polyline stroke="#262626" fill="none" stroke-width="0.5" stroke-linejoin="miter" stroke-linecap="butt" points="149.28,32.3999 149.28,36.8652"/>
   <polyline stroke="#262626" fill="none" stroke-width="0.5" stroke-linejoin="miter" stroke-linecap="butt" points="223.68,384.48 223.68,380.015"/>
   <polyline stroke="#262626" fill="none" stroke-width="0.5" stroke-linejoin="miter" stroke-linecap="butt" points="223.68,32.3999 223.68,36.8652"/>
   <polyline stroke="#262626" fill="none" stroke-width="0.5" stroke-linejoin="miter" stroke-linecap="butt" points="298.08,384.48 298.08,380.015"/>
   <polyline stroke="#262626" fill="none" stroke-width="0.5" stroke-linejoin="miter" stroke-linecap="butt" points="298.08,32.3999 298.08,36.8652"/>
   <polyline stroke="#262626" fill="none" stroke-width="0.5" stroke-linejoin="miter" stroke-linecap="butt" points="372.48,384.48 372.48,380.015"/>
   <polyline stroke="#262626" fill="none" stroke-width="0.5" stroke-linejoin="miter" stroke-linecap="butt" points="372.48,32.3999 372.48,36.8652"/>
   <polyline stroke="#262626" fill="none" stroke-width="0.5" stroke-linejoin="miter" stroke-linecap="butt" points="446.88,384.48 446.88,380.015"/>
   <polyline stroke="#262626" fill="none" stroke-width="0.5" stroke-linejoin="miter" stroke-linecap="butt" points="446.88,32.3999 446.88,36.8652"/>
   <polyline stroke="#262626" fill="none" stroke-width="0.5" stroke-linejoin="miter" stroke-linecap="butt" points="521.28,384.48 521.28,380.015"/>
   <polyline stroke="#262626" fill="none" stroke-width="0.5" stroke-linejoin="miter" stroke-linecap="butt" points="521.28,32.3999 521.28,36.8652"/>
   <text xml:space="preserve" font-size="10" transform="translate(59.88,399.982) rotate(-0,15,-8)" font-family="FreeSans" font-style="normal" font-weight="normal">
    <tspan fill="rgb(38,38,38)" x="0 6 12 18 24 " y="-0">20000</tspan>
   </text>
   <text xml:space="preserve" font-size="10" transform="translate(134.28,399.982) rotate(-0,15,-8)" font-family="FreeSans" font-style="normal" font-weight="normal">
    <tspan fill="rgb(38,38,38)" x="0 6 12 18 24 " y="-0">30000</tspan>
   </text>
   <text xml:space="preserve" font-size="10" transform="translate(208.68,399.982) rotate(-0,15,-8)" font-family="FreeSans" font-style="normal" font-weight="normal">
    <tspan fill="rgb(38,38,38)" x="0 6 12 18 24 " y="-0">40000</tspan>
   </text>
   <text xml:space="preserve" font-size="10" transform="translate(283.08,399.982) rotate(-0,15,-8)" font-family="FreeSans" font-style="normal" font-weight="normal">
    <tspan fill="rgb(38,38,38)" x="0 6 12 18 24 " y="-0">50000</tspan>
   </text>
   <text xml:space="preserve" font-size="10" transform="translate(357.48,399.982) rotate(-0,15,-8)" font-family="FreeSans" font-style="normal" font-weight="normal">
    <tspan fill="rgb(38,38,38)" x="0 6 12 18 24 " y="-0">60000</tspan>
   </text>
   <text xml:space="preserve" font-size="10" transform="translate(431.88,399.982) rotate(-0,15,-8)" font-family="FreeSans" font-style="normal" font-weight="normal">
    <tspan fill="rgb(38,38,38)" x="0 6 12 18 24 " y="-0">70000</tspan>
   </text>
   <text xml:space="preserve" font-size="10" transform="translate(506.28,399.982) rotate(-0,15,-8)" font-family="FreeSans" font-style="normal" font-weight="normal">
    <tspan fill="rgb(38,38,38)" x="0 6 12 18 24 " y="-0">80000</tspan>
   </text>
   <polyline stroke="#262626" fill="none" stroke-width="0.5" stroke-opacity="0.15" stroke-linejoin="miter" stroke-dasharray="16,0" stroke-linecap="butt" points="74.8799,384.48 521.28,384.48"/>
   <polyline stroke="#262626" fill="none" stroke-width="0.5" stroke-opacity="0.15" stroke-linejoin="miter" stroke-dasharray="16,0" stroke-linecap="butt" points="74.8799,314.064 521.28,314.064"/>
   <polyline stroke="#262626" fill="none" stroke-width="0.5" stroke-opacity="0.15" stroke-linejoin="miter" stroke-dasharray="16,0" stroke-linecap="butt" points="74.8799,243.648 521.28,243.648"/>
   <polyline stroke="#262626" fill="none" stroke-width="0.5" stroke-opacity="0.15" stroke-linejoin="miter" stroke-dasharray="16,0" stroke-linecap="butt" points="74.8799,173.232 521.28,173.232"/>
   <polyline stroke="#262626" fill="none" stroke-width="0.5" stroke-opacity="0.15" stroke-linejoin="miter" stroke-dasharray="16,0" stroke-linecap="butt" points="74.8799,102.816 521.28,102.816"/>
   <polyline stroke="#262626" fill="none" stroke-width="0.5" stroke-opacity="0.15" stroke-linejoin="miter" stroke-dasharray="16,0" stroke-linecap="butt" points="74.8799,32.3999 521.28,32.3999"/>
   <polyline stroke="#262626" fill="none" stroke-width="0.5" stroke-linejoin="miter" stroke-linecap="butt" points="74.8799,384.48 79.3481,384.48"/>
   <polyline stroke="#262626" fill="none" stroke-width="0.5" stroke-linejoin="miter" stroke-linecap="butt" points="521.28,384.48 516.812,384.48"/>
   <polyline stroke="#262626" fill="none" stroke-width="0.5" stroke-linejoin="miter" stroke-linecap="butt" points="74.8799,314.064 79.3481,314.064"/>
   <polyline stroke="#262626" fill="none" stroke-width="0.5" stroke-linejoin="miter" stroke-linecap="butt" points="521.28,314.064 516.812,314.064"/>
   <polyline stroke="#262626" fill="none" stroke-width="0.5" stroke-linejoin="miter" stroke-linecap="butt" points="74.8799,243.648 79.3481,243.648"/>
   <polyline stroke="#262626" fill="none" stroke-width="0.5" stroke-linejoin="miter" stroke-linecap="butt" points="521.28,243.648 516.812,243.648"/>
   <polyline stroke="#262626" fill="none" stroke-width="0.5" stroke-linejoin="miter" stroke-linecap="butt" points="74.8799,173.232 79.3481,173.232"/>
   <polyline stroke="#262626" fill="none" stroke-width="0.5" stroke-linejoin="miter" stroke-linecap="butt" points="521.28,173.232 516.812,173.232"/>
   <polyline stroke="#262626" fill="none" stroke-width="0.5" stroke-linejoin="miter" stroke-linecap="butt" points="74.8799,102.816 79.3481,102.816"/>
   <polyline stroke="#262626" fill="none" stroke-width="0.5" stroke-linejoin="miter" stroke-linecap="butt" points="521.28,102.816 516.812,102.816"/>
   <polyline stroke="#262626" fill="none" stroke-width="0.5" stroke-linejoin="miter" stroke-linecap="butt" points="74.8799,32.3999 79.3481,32.3999"/>
   <polyline stroke="#262626" fill="none" stroke-width="0.5" stroke-linejoin="miter" stroke-linecap="butt" points="521.28,32.3999 516.812,32.3999"/>
   <text xml:space="preserve" font-size="10" transform="translate(63.8755,388.48) rotate(-0,6,-4)" font-family="FreeSans" font-style="normal" font-weight="normal">
    <tspan fill="rgb(38,38,38)" x="0 " y="-0">0</tspan>
   </text>
   <text xml:space="preserve" font-size="10" transform="translate(33.8755,318.064) rotate(-0,36,-4)" font-family="FreeSans" font-style="normal" font-weight="normal">
    <tspan fill="rgb(38,38,38)" x="0 6 12 18 24 30 " y="-0">100000</tspan>
   </text>
   <text xml:space="preserve" font-size="10" transform="translate(33.8755,247.648) rotate(-0,36,-4)" font-family="FreeSans" font-style="normal" font-weight="normal">
    <tspan fill="rgb(38,38,38)" x="0 6 12 18 24 30 " y="-0">200000</tspan>
   </text>
   <text xml:space="preserve" font-size="10" transform="translate(33.8755,177.232) rotate(-0,36,-4)" font-family="FreeSans" font-style="normal" font-weight="normal">
    <tspan fill="rgb(38,38,38)" x="0 6 12 18 24 30 " y="-0">300000</tspan>
   </text>
   <text xml:space="preserve" font-size="10" transform="translate(33.8755,106.816) rotate(-0,36,-4)" font-family="FreeSans" font-style="normal" font-weight="normal">
    <tspan fill="rgb(38,38,38)" x="0 6 12 18 24 30 " y="-0">400000</tspan>
   </text>
   <text xml:space="preserve" font-size="10" transform="translate(33.8755,36.4) rotate(-0,36,-4)" font-family="FreeSans" font-style="normal" font-weight="normal">
    <tspan fill="rgb(38,38,38)" x="0 6 12 18 24 30 " y="-0">500000</tspan>
   </text>
   <polyline stroke="#262626" fill="none" stroke-width="0.5" stroke-linejoin="miter" stroke-dasharray="16,0" stroke-linecap="square" points="74.8799,384.48 521.28,384.48"/>
   <polyline stroke="#262626" fill="none" stroke-width="0.5" stroke-linejoin="miter" stroke-dasharray="16,0" stroke-linecap="square" points="74.8799,32.3999 521.28,32.3999"/>
   <polyline stroke="#262626" fill="none" stroke-width="0.5" stroke-linejoin="miter" stroke-dasharray="16,0" stroke-linecap="square" points="74.8799,384.48 74.8799,32.3999"/>
   <polyline stroke="#262626" fill="none" stroke-width="0.5" stroke-linejoin="miter" stroke-dasharray="16,0" stroke-linecap="square" points="521.28,384.48 521.28,32.3999"/>
   <text xml:space="preserve" font-size="11" transform="translate(269.08,416.982) rotate(-0,29,-12)" font-family="FreeSans" font-style="normal" font-weight="normal">
    <tspan fill="rgb(38,38,38)" x="0 6 12 17 19 25 31 37 40 43 49 55 " y="-3">payload [kg]</tspan>
   </text>
   <text xml:space="preserve" font-size="11" transform="translate(0.875516,208.44) rotate(-90,28,0)" font-family="FreeSans" font-style="normal" font-weight="normal">
    <tspan fill="rgb(38,38,38)" x="0 9 16 25 35 38 41 47 53 " y="-2">MTOW [kg]</tspan>
   </text>
   <polyline stroke="#0000ff" fill="none" stroke-width="2" stroke-linejoin="round" stroke-linecap="butt" points="74.8799,231.814 79.3892,228.679 83.8979,225.561 88.4072,222.458 92.9165,219.373 97.4253,216.302 101.935,213.246 106.444,210.204 110.953,207.176 115.462,204.162 119.971,201.16 124.48,198.171 128.989,195.194 133.498,192.229 138.007,189.276 142.516,186.334 147.025,183.403 151.535,180.482 156.043,177.572 160.553,174.672 165.062,171.782 169.571,168.901 174.08,166.03 178.589,163.168 183.098,160.314 187.607,157.47 192.116,154.634 196.625,151.806 201.135,148.987 205.644,146.175 210.153,143.372 214.662,140.575 219.171,137.787 223.68,135.006 228.189,132.231 232.698,129.465 237.208,126.705 241.716,123.951 246.226,121.205 250.734,118.465 255.244,115.731 259.753,113.004 264.262,110.283 268.771,107.568 273.28,104.859 277.789,102.156 282.298,99.4585 286.807,96.7671 291.316,94.0811 295.826,384.48 300.334,384.48 304.844,384.48 309.353,384.48 313.862,384.48 318.371,384.48 322.88,384.48 327.389,384.48 331.898,384.48 336.407,384.48 340.917,384.48 345.425,384.48 349.935,384.48 354.444,384.48 358.953,384.48 363.462,384.48 367.971,384.48 372.48,384.48 376.989,384.48 381.498,384.48 386.007,384.48 390.516,384.48 395.025,384.48 399.535,384.48 404.043,384.48 408.553,384.48 413.062,384.48 417.571,384.48 422.08,384.48 426.589,384.48 431.098,384.48 435.607,384.48 440.116,384.48 444.625,384.48 449.135,384.48 453.644,384.48 458.153,384.48 462.662,384.48 467.171,384.48 471.68,384.48 476.189,384.48 480.698,384.48 485.207,384.48 489.716,384.48 494.226,384.48 498.734,384.48 503.244,384.48 507.753,384.48 512.262,384.48 516.771,384.48 521.28,384.48"/>
  </g>
 </g>
</svg>
