<?xml version='1.0' encoding='UTF-8' standalone='no'?>
<svg xmlns="http://www.w3.org/2000/svg" viewBox="0 0 576 432" xmlns:xlink="http://www.w3.org/1999/xlink" width="576pt" height="432pt">
 <title>gl2ps_renderer figure</title>
 <desc>
Creator: GL2PS 1.4.2, (C) 1999-2020 C. Geuzaine
For: Octave
CreationDate: Mon Dec 14 22:22:03 2020
</desc>
 <defs/>
 <polygon fill="#ffffff" points="0,0 576,0 576,432 0,432"/>
 <g>
  <polygon shape-rendering="crispEdges" fill="#ffffff" points="0,432 576,432 576,0 0,0"/>
  <clipPath id="cp00576432">
   <polygon points="0,432 576,432 576,0 0,0"/>
  </clipPath>
  <g clip-path="url(#cp00576432)">
   <polygon shape-rendering="crispEdges" fill="#ffffff" points="74.8799,384.48 521.28,384.48 521.28,32.3999 74.8799,32.3999"/>
   <polyline stroke-dasharray="16,0" stroke-linecap="butt" fill="none" stroke-width="0.5" stroke-linejoin="miter" stroke="#262626" points="74.8799,384.48 74.8799,32.3999" stroke-opacity="0.15"/>
   <polyline stroke-dasharray="16,0" stroke-linecap="butt" fill="none" stroke-width="0.5" stroke-linejoin="miter" stroke="#262626" points="164.16,384.48 164.16,32.3999" stroke-opacity="0.15"/>
   <polyline stroke-dasharray="16,0" stroke-linecap="butt" fill="none" stroke-width="0.5" stroke-linejoin="miter" stroke="#262626" points="253.44,384.48 253.44,32.3999" stroke-opacity="0.15"/>
   <polyline stroke-dasharray="16,0" stroke-linecap="butt" fill="none" stroke-width="0.5" stroke-linejoin="miter" stroke="#262626" points="342.72,384.48 342.72,32.3999" stroke-opacity="0.15"/>
   <polyline stroke-dasharray="16,0" stroke-linecap="butt" fill="none" stroke-width="0.5" stroke-linejoin="miter" stroke="#262626" points="432,384.48 432,32.3999" stroke-opacity="0.15"/>
   <polyline stroke-dasharray="16,0" stroke-linecap="butt" fill="none" stroke-width="0.5" stroke-linejoin="miter" stroke="#262626" points="521.28,384.48 521.28,32.3999" stroke-opacity="0.15"/>
   <polyline stroke-linecap="butt" fill="none" stroke-width="0.5" stroke-linejoin="miter" stroke="#262626" points="74.8799,384.48 74.8799,380.015"/>
   <polyline stroke-linecap="butt" fill="none" stroke-width="0.5" stroke-linejoin="miter" stroke="#262626" points="74.8799,32.3999 74.8799,36.8652"/>
   <polyline stroke-linecap="butt" fill="none" stroke-width="0.5" stroke-linejoin="miter" stroke="#262626" points="164.16,384.48 164.16,380.015"/>
   <polyline stroke-linecap="butt" fill="none" stroke-width="0.5" stroke-linejoin="miter" stroke="#262626" points="164.16,32.3999 164.16,36.8652"/>
   <polyline stroke-linecap="butt" fill="none" stroke-width="0.5" stroke-linejoin="miter" stroke="#262626" points="253.44,384.48 253.44,380.015"/>
   <polyline stroke-linecap="butt" fill="none" stroke-width="0.5" stroke-linejoin="miter" stroke="#262626" points="253.44,32.3999 253.44,36.8652"/>
   <polyline stroke-linecap="butt" fill="none" stroke-width="0.5" stroke-linejoin="miter" stroke="#262626" points="342.72,384.48 342.72,380.015"/>
   <polyline stroke-linecap="butt" fill="none" stroke-width="0.5" stroke-linejoin="miter" stroke="#262626" points="342.72,32.3999 342.72,36.8652"/>
   <polyline stroke-linecap="butt" fill="none" stroke-width="0.5" stroke-linejoin="miter" stroke="#262626" points="432,384.48 432,380.015"/>
   <polyline stroke-linecap="butt" fill="none" stroke-width="0.5" stroke-linejoin="miter" stroke="#262626" points="432,32.3999 432,36.8652"/>
   <polyline stroke-linecap="butt" fill="none" stroke-width="0.5" stroke-linejoin="miter" stroke="#262626" points="521.28,384.48 521.28,380.015"/>
   <polyline stroke-linecap="butt" fill="none" stroke-width="0.5" stroke-linejoin="miter" stroke="#262626" points="521.28,32.3999 521.28,36.8652"/>
   <text xml:space="preserve" font-weight="normal" font-size="10" transform="translate(71.88,399.982) rotate(-0,3,-8)" font-style="normal" font-family="FreeSans">
    <tspan fill="rgb(38,38,38)" x="0 " y="-0">0</tspan>
   </text>
   <text xml:space="preserve" font-weight="normal" font-size="10" transform="translate(161.16,399.982) rotate(-0,3,-8)" font-style="normal" font-family="FreeSans">
    <tspan fill="rgb(38,38,38)" x="0 " y="-0">2</tspan>
   </text>
   <text xml:space="preserve" font-weight="normal" font-size="10" transform="translate(250.44,399.982) rotate(-0,3,-8)" font-style="normal" font-family="FreeSans">
    <tspan fill="rgb(38,38,38)" x="0 " y="-0">4</tspan>
   </text>
   <text xml:space="preserve" font-weight="normal" font-size="10" transform="translate(339.72,399.982) rotate(-0,3,-8)" font-style="normal" font-family="FreeSans">
    <tspan fill="rgb(38,38,38)" x="0 " y="-0">6</tspan>
   </text>
   <text xml:space="preserve" font-weight="normal" font-size="10" transform="translate(429,399.982) rotate(-0,3,-8)" font-style="normal" font-family="FreeSans">
    <tspan fill="rgb(38,38,38)" x="0 " y="-0">8</tspan>
   </text>
   <text xml:space="preserve" font-weight="normal" font-size="10" transform="translate(515.28,399.982) rotate(-0,6,-8)" font-style="normal" font-family="FreeSans">
    <tspan fill="rgb(38,38,38)" x="0 6 " y="-0">10</tspan>
   </text>
   <polyline stroke-dasharray="16,0" stroke-linecap="butt" fill="none" stroke-width="0.5" stroke-linejoin="miter" stroke="#262626" points="74.8799,384.48 521.28,384.48" stroke-opacity="0.15"/>
   <polyline stroke-dasharray="16,0" stroke-linecap="butt" fill="none" stroke-width="0.5" stroke-linejoin="miter" stroke="#262626" points="74.8799,296.46 521.28,296.46" stroke-opacity="0.15"/>
   <polyline stroke-dasharray="16,0" stroke-linecap="butt" fill="none" stroke-width="0.5" stroke-linejoin="miter" stroke="#262626" points="74.8799,208.44 521.28,208.44" stroke-opacity="0.15"/>
   <polyline stroke-dasharray="16,0" stroke-linecap="butt" fill="none" stroke-width="0.5" stroke-linejoin="miter" stroke="#262626" points="74.8799,120.42 521.28,120.42" stroke-opacity="0.15"/>
   <polyline stroke-dasharray="16,0" stroke-linecap="butt" fill="none" stroke-width="0.5" stroke-linejoin="miter" stroke="#262626" points="74.8799,32.3999 521.28,32.3999" stroke-opacity="0.15"/>
   <polyline stroke-linecap="butt" fill="none" stroke-width="0.5" stroke-linejoin="miter" stroke="#262626" points="74.8799,384.48 79.3481,384.48"/>
   <polyline stroke-linecap="butt" fill="none" stroke-width="0.5" stroke-linejoin="miter" stroke="#262626" points="521.28,384.48 516.812,384.48"/>
   <polyline stroke-linecap="butt" fill="none" stroke-width="0.5" stroke-linejoin="miter" stroke="#262626" points="74.8799,296.46 79.3481,296.46"/>
   <polyline stroke-linecap="butt" fill="none" stroke-width="0.5" stroke-linejoin="miter" stroke="#262626" points="521.28,296.46 516.812,296.46"/>
   <polyline stroke-linecap="butt" fill="none" stroke-width="0.5" stroke-linejoin="miter" stroke="#262626" points="74.8799,208.44 79.3481,208.44"/>
   <polyline stroke-linecap="butt" fill="none" stroke-width="0.5" stroke-linejoin="miter" stroke="#262626" points="521.28,208.44 516.812,208.44"/>
   <polyline stroke-linecap="butt" fill="none" stroke-width="0.5" stroke-linejoin="miter" stroke="#262626" points="74.8799,120.42 79.3481,120.42"/>
   <polyline stroke-linecap="butt" fill="none" stroke-width="0.5" stroke-linejoin="miter" stroke="#262626" points="521.28,120.42 516.812,120.42"/>
   <polyline stroke-linecap="butt" fill="none" stroke-width="0.5" stroke-linejoin="miter" stroke="#262626" points="74.8799,32.3999 79.3481,32.3999"/>
   <polyline stroke-linecap="butt" fill="none" stroke-width="0.5" stroke-linejoin="miter" stroke="#262626" points="521.28,32.3999 516.812,32.3999"/>
   <text xml:space="preserve" font-weight="normal" font-size="10" transform="translate(63.8755,388.48) rotate(-0,6,-4)" font-style="normal" font-family="FreeSans">
    <tspan fill="rgb(38,38,38)" x="0 " y="-0">0</tspan>
   </text>
   <text xml:space="preserve" font-weight="normal" font-size="10" transform="translate(63.8755,300.46) rotate(-0,6,-4)" font-style="normal" font-family="FreeSans">
    <tspan fill="rgb(38,38,38)" x="0 " y="-0">5</tspan>
   </text>
   <text xml:space="preserve" font-weight="normal" font-size="10" transform="translate(57.8755,212.44) rotate(-0,12,-4)" font-style="normal" font-family="FreeSans">
    <tspan fill="rgb(38,38,38)" x="0 6 " y="-0">10</tspan>
   </text>
   <text xml:space="preserve" font-weight="normal" font-size="10" transform="translate(57.8755,124.42) rotate(-0,12,-4)" font-style="normal" font-family="FreeSans">
    <tspan fill="rgb(38,38,38)" x="0 6 " y="-0">15</tspan>
   </text>
   <text xml:space="preserve" font-weight="normal" font-size="10" transform="translate(57.8755,36.4) rotate(-0,12,-4)" font-style="normal" font-family="FreeSans">
    <tspan fill="rgb(38,38,38)" x="0 6 " y="-0">20</tspan>
   </text>
   <polyline stroke-dasharray="16,0" stroke-linecap="square" fill="none" stroke-width="0.5" stroke-linejoin="miter" stroke="#262626" points="74.8799,384.48 521.28,384.48"/>
   <polyline stroke-dasharray="16,0" stroke-linecap="square" fill="none" stroke-width="0.5" stroke-linejoin="miter" stroke="#262626" points="74.8799,32.3999 521.28,32.3999"/>
   <polyline stroke-dasharray="16,0" stroke-linecap="square" fill="none" stroke-width="0.5" stroke-linejoin="miter" stroke="#262626" points="74.8799,384.48 74.8799,32.3999"/>
   <polyline stroke-dasharray="16,0" stroke-linecap="square" fill="none" stroke-width="0.5" stroke-linejoin="miter" stroke="#262626" points="521.28,384.48 521.28,32.3999"/>
   <text xml:space="preserve" font-weight="normal" font-size="11" transform="translate(294.58,413.982) rotate(-0,3.5,-9)" font-style="normal" font-family="FreeSans">
    <tspan fill="rgb(38,38,38)" x="0 " y="-0">X</tspan>
   </text>
   <text xml:space="preserve" font-weight="normal" font-size="11" transform="translate(49.3755,208.44) rotate(-90,3.5,0)" font-style="normal" font-family="FreeSans">
    <tspan fill="rgb(38,38,38)" x="0 " y="-0">Z</tspan>
   </text>
   <text xml:space="preserve" font-weight="bold" font-size="11" transform="translate(264.08,22.4) rotate(-0,34,0)" font-style="normal" font-family="FreeSans">
    <tspan fill="rgb(0,0,0)" x="0 7 13 17 21 24 30 36 39 42 51 54 61 " y="-3">Vertical wing</tspan>
   </text>
   <polyline stroke-linecap="butt" fill="none" stroke-width="2" stroke-linejoin="round" stroke="#0071bc" points="74.8799,384.48 499.594,330.902"/>
   <polyline stroke-linecap="butt" fill="none" stroke-width="2" stroke-linejoin="round" stroke="#d85218" points="74.8799,104.299 499.594,221.576"/>
   <polyline stroke-linecap="butt" fill="none" stroke-width="2" stroke-linejoin="round" stroke="#ecb01f" points="74.8799,384.48 74.8799,104.299"/>
   <polyline stroke-linecap="butt" fill="none" stroke-width="2" stroke-linejoin="round" stroke="#7d2e8d" points="499.594,330.902 499.594,221.576"/>
  </g>
 </g>
</svg>
